<svg width="23" height="23" viewBox="0 0 23 23" fill="none" xmlns="http://www.w3.org/2000/svg">
<path d="M22.5312 9.29669H21.625V9.25H11.5V13.75H17.8579C16.9304 16.3696 14.4379 18.25 11.5 18.25C7.77231 18.25 4.75 15.2277 4.75 11.5C4.75 7.77231 7.77231 4.75 11.5 4.75C13.2207 4.75 14.7861 5.39912 15.9781 6.45944L19.1601 3.27737C17.1509 1.40481 14.4632 0.25 11.5 0.25C5.28719 0.25 0.25 5.28719 0.25 11.5C0.25 17.7128 5.28719 22.75 11.5 22.75C17.7128 22.75 22.75 17.7128 22.75 11.5C22.75 10.7457 22.6724 10.0094 22.5312 9.29669Z" fill="#FFC107"/>
</svg>
