<svg width="403" height="298" viewBox="0 0 403 298" fill="none" xmlns="http://www.w3.org/2000/svg">
<path opacity="0.1" d="M26.3763 116.8H61.4021V164.574H28.9373C28.8545 165.068 28.7716 165.558 28.6785 166.052H61.4021V204.573C61.3469 204.573 61.2916 204.532 61.2399 204.511C60.3195 204.145 59.3991 203.757 58.4787 203.347C58.2819 203.258 58.0886 203.164 57.8885 203.078C56.9681 202.643 56.0477 202.182 55.1273 201.697C54.8063 201.527 54.4853 201.351 54.1712 201.172C49.0615 198.319 44.4174 194.701 40.3997 190.445C40.2789 190.331 40.1685 190.207 40.0546 190.099C39.4954 189.492 38.9466 188.877 38.4151 188.248C38.2149 188.017 38.0216 187.782 37.8249 187.558C37.1967 186.791 36.5893 185.997 36.0025 185.199C35.9128 185.078 35.83 184.961 35.7437 184.853C33.34 181.525 31.3468 177.919 29.8071 174.113C29.7588 173.999 29.7139 173.874 29.669 173.767C29.1927 172.559 28.7613 171.333 28.3885 170.082C28.2298 169.561 28.0744 169.046 27.9433 168.504C27.895 168.349 27.857 168.19 27.8156 168.034C25.8758 160.385 25.6515 152.435 25.6515 144.522C25.6515 143.601 25.6515 142.68 25.6515 141.76C25.6791 138.529 25.7171 135.302 25.7654 132.079C25.7838 131.25 25.8011 130.418 25.8172 129.582C25.8655 127.466 25.9345 125.346 26.0243 123.221C26.045 122.634 26.0726 122.043 26.1036 121.459C26.1174 121.121 26.1347 120.782 26.1554 120.444C26.2175 119.221 26.2912 118.007 26.3763 116.8Z" fill="#65079E"/>
<path opacity="0.1" d="M61.4021 63.6082H42.1876C45.3124 58.7197 48.7251 54.0214 52.4075 49.5383C55.2653 46.0295 58.275 42.6104 61.4021 39.3157V63.6082Z" fill="#65079E"/>
<path opacity="0.1" d="M61.4021 65.0795V115.322H26.4868C26.4868 115.177 26.5075 115.029 26.5213 114.884C26.5524 114.487 26.5835 114.093 26.618 113.696C26.6525 113.233 26.6974 112.77 26.7422 112.314C26.7871 111.858 26.832 111.306 26.8872 110.805C26.9424 110.304 26.9873 109.797 27.0425 109.296C27.0977 108.795 27.153 108.294 27.2151 107.797C27.2772 107.3 27.3324 106.795 27.4015 106.298C27.4532 105.887 27.505 105.473 27.5637 105.058C27.6431 104.475 27.7259 103.891 27.8122 103.311C27.8122 103.221 27.8398 103.135 27.8536 103.048C28.4844 98.8013 29.3416 94.5911 30.4215 90.4357C31.5556 86.0774 33.0032 81.8068 34.7531 77.6574C36.6126 73.3099 38.7907 69.1057 41.2696 65.0795H61.4021Z" fill="#65079E"/>
<path opacity="0.1" d="M69.7686 116.8V164.574H144.583V116.8H69.7686ZM69.7686 166.052V207.081C70.1965 207.167 70.6176 207.253 71.0422 207.326C71.6117 207.437 72.1846 207.537 72.7679 207.623L73.1131 207.671C73.3409 207.709 73.5721 207.74 73.8034 207.768C74.3798 207.851 74.9562 207.913 75.5291 207.968C75.7983 207.996 76.0779 208.017 76.3506 208.041L77.0167 208.089C77.3791 208.117 77.7381 208.138 78.097 208.151C78.3179 208.151 78.5388 208.169 78.7632 208.176C78.9875 208.182 79.1083 208.176 79.2878 208.176H79.9401C80.2369 208.176 80.5338 208.176 80.8271 208.176H81.2068C81.5036 208.176 81.8005 208.176 82.0938 208.148H82.1111C82.3182 208.148 82.5218 208.148 82.7289 208.124C82.7875 208.127 82.8463 208.127 82.9049 208.124C83.0775 208.124 83.2501 208.124 83.4158 208.103C83.4548 208.1 83.4941 208.1 83.5331 208.103C83.9162 208.079 84.3028 208.048 84.6928 208.013C85.0828 207.979 85.4522 207.937 85.8422 207.896L86.6257 207.799C89.8272 207.351 92.9932 206.677 96.1 205.782C103.082 203.834 109.906 201.11 116.885 199.117C125.9 196.544 135.868 195.276 144.58 198.409V166.052H69.7686ZM144.583 63.6083V0.00692023C136.393 -0.0832433 128.225 0.87425 120.278 2.85613C101.332 7.61864 84.3201 17.9483 69.7686 31.141V63.6048H73.5341V65.0795H69.7686V115.322H144.583V65.0795H88.9382V63.6013L144.583 63.6083ZM240.7 42.1235C236.013 41.9577 231.354 40.4761 227.136 38.1795C219.08 33.7969 212.64 27.0209 205.447 21.3087C190.502 9.40414 171.967 2.21722 152.953 0.435165V63.6083H259.746L260.012 63.3285L240.7 42.1235ZM250.43 40.3967L260.747 51.7279V37.4162C257.274 37.8548 254.251 38.8736 250.43 40.3829V40.3967ZM260.747 217.269V166.052H238.747C238.692 165.835 238.63 165.614 238.56 165.392C238.626 165.614 238.685 165.835 238.743 166.052H152.953V203.088C153.768 203.693 154.572 204.332 155.369 204.974C156.23 205.679 157.084 206.391 157.934 207.112L158.79 207.82C159.2 208.165 159.618 208.511 160.032 208.839C160.863 209.509 161.699 210.172 162.541 210.828C162.962 211.159 163.386 211.485 163.811 211.805C170.553 216.961 177.664 221.614 185.086 225.727C186.75 226.656 188.431 227.55 190.122 228.424C191.247 229.004 192.381 229.573 193.522 230.13C195.234 230.966 196.96 231.772 198.699 232.548C214.737 239.751 231.696 244.693 249.091 247.232C252.952 247.801 256.83 248.25 260.726 248.579V217.262H261.071L260.747 217.269ZM152.953 65.0795V115.322H260.747V65.0795H152.953ZM152.953 116.794V164.574H260.747V116.8L152.953 116.794ZM269.113 37.3471V53.3373L282.277 38.8771C277.914 38.1564 273.526 37.6465 269.113 37.3471ZM269.113 116.8V164.574H373.952V116.8H269.113ZM373.583 221.057L373.952 166.052H269.113V249.135C275.866 249.416 282.629 249.334 289.373 248.89H289.491C292.712 248.683 295.919 248.388 299.11 248.006H299.183C316.214 246.022 332.867 241.571 348.618 234.792L373.583 221.057ZM394.178 124.647C393.78 123.726 393.372 122.805 392.953 121.884C392.173 120.157 391.351 118.479 390.502 116.804H382.322V164.574H403C402.983 151.043 399.559 137.228 394.178 124.647ZM382.322 166.052V213.366C388.145 207.782 393.07 201.389 396.611 194.081C400.874 185.278 402.824 175.753 402.986 166.049L382.322 166.052ZM382.322 102.879V115.312H389.736C387.489 111.038 385.014 106.888 382.322 102.879ZM311.221 46.7237C310.676 46.513 310.127 46.3023 309.578 46.102C303.792 43.9622 297.879 42.1836 291.872 40.7766L271.722 62.9003L271.329 63.3251L271.588 63.6048H343.303C333.314 56.7274 322.545 51.0607 311.221 46.7237ZM345.408 65.0795H270.583L269.113 66.4229V115.322H282.004H373.952V91.6307C365.638 81.5702 356.042 72.6437 345.408 65.0795Z" fill="#65079E"/>
<path opacity="0.1" d="M61.4021 90.4254V115.322H26.4868C26.4868 115.177 26.5075 115.029 26.5213 114.884C26.5524 114.487 26.5835 114.093 26.618 113.696C26.6525 113.233 26.6974 112.77 26.7422 112.314C26.7871 111.858 26.832 111.306 26.8872 110.805C26.9424 110.304 26.9873 109.797 27.0425 109.296C27.0977 108.795 27.153 108.294 27.2151 107.797C27.2772 107.3 27.3324 106.795 27.4015 106.298C27.4532 105.887 27.505 105.473 27.5637 105.058C27.6431 104.475 27.7259 103.891 27.8122 103.311C27.8122 103.221 27.8398 103.135 27.8536 103.048C28.4844 98.8013 29.3416 94.5911 30.4215 90.4357L61.4021 90.4254Z" fill="#65079E"/>
<path opacity="0.1" d="M26.3763 116.8H61.4021V164.574H28.9373C28.8545 165.068 28.7716 165.558 28.6785 166.052H61.4021V204.573C61.3469 204.573 61.2916 204.532 61.2399 204.511C60.3195 204.145 59.3991 203.757 58.4787 203.347C58.2819 203.258 58.0886 203.164 57.8885 203.078C56.9681 202.643 56.0477 202.182 55.1273 201.697C54.8063 201.527 54.4853 201.351 54.1712 201.172C49.0615 198.319 44.4174 194.701 40.3997 190.445C40.2789 190.331 40.1685 190.207 40.0546 190.099C39.4954 189.492 38.9466 188.877 38.4151 188.248C38.2149 188.017 38.0216 187.782 37.8249 187.558C37.1967 186.791 36.5893 185.997 36.0025 185.199C35.9128 185.078 35.83 184.961 35.7437 184.853C33.34 181.525 31.3468 177.919 29.8071 174.113C29.7588 173.999 29.7139 173.874 29.669 173.767C29.1927 172.559 28.7613 171.333 28.3885 170.082C28.2298 169.561 28.0744 169.046 27.9433 168.504C27.895 168.349 27.857 168.19 27.8156 168.034C25.8758 160.385 25.6515 152.435 25.6515 144.522C25.6515 143.601 25.6515 142.68 25.6515 141.76C25.6791 138.529 25.7171 135.302 25.7654 132.079C25.7838 131.25 25.8011 130.418 25.8172 129.582C25.8655 127.466 25.9345 125.346 26.0243 123.221C26.045 122.634 26.0726 122.043 26.1036 121.459C26.1174 121.121 26.1347 120.782 26.1554 120.444C26.2175 119.221 26.2912 118.007 26.3763 116.8Z" fill="#65079E"/>
<path opacity="0.1" d="M96.1035 72.2768V115.322H69.7651V72.2768H73.5204V57.7026H88.9347V72.2768H96.1035Z" fill="#65079E"/>
<path opacity="0.1" d="M96.1 116.797H69.7651V164.571H96.1V116.797Z" fill="#65079E"/>
<path opacity="0.1" d="M69.7686 166.052H96.1034V205.768C92.997 206.663 89.8309 207.336 86.6291 207.782C86.3668 207.82 86.1079 207.851 85.8456 207.879C85.459 207.923 85.0759 207.965 84.6928 207.999L83.5366 208.093H83.4192L82.9084 208.12H82.7324C82.5253 208.12 82.3216 208.144 82.1145 208.148H82.0973C81.8005 208.148 81.5071 208.169 81.2103 208.176H80.8306C80.5372 208.176 80.2438 208.176 79.9436 208.176H79.2947H78.7666C78.5423 208.176 78.3214 208.176 78.097 208.148C77.7427 208.134 77.3837 208.113 77.0201 208.086L76.354 208.037C76.0779 208.017 75.8018 207.989 75.5291 207.961C74.9492 207.911 74.374 207.845 73.8033 207.765L73.1131 207.668L72.7679 207.62C72.1915 207.533 71.6186 207.436 71.0422 207.326C70.6142 207.25 70.1931 207.164 69.7686 207.074V166.052Z" fill="#65079E"/>
<path opacity="0.1" d="M260.743 67.1931H239.026V115.319H260.743V67.1931Z" fill="#65079E"/>
<path opacity="0.1" d="M260.747 116.797V164.574H152.953V143.966H210.369V156.123H239.026V116.797H260.747Z" fill="#65079E"/>
<path opacity="0.1" d="M261.088 217.279C260.974 217.279 260.861 217.279 260.743 217.259V248.6C256.852 248.28 252.975 247.832 249.112 247.256C231.71 244.718 214.745 239.778 198.699 232.579C194.067 230.488 189.53 228.21 185.086 225.744C177.666 221.629 170.557 216.976 163.815 211.823C162.117 210.524 160.444 209.197 158.796 207.841C157.654 206.894 156.522 205.927 155.369 204.991C154.575 204.346 153.771 203.707 152.953 203.099V166.052H238.743C238.681 165.831 238.626 165.614 238.564 165.392C238.629 165.614 238.692 165.831 238.747 166.052H260.747V217.255C260.86 217.259 260.974 217.269 261.088 217.279Z" fill="#65079E"/>
<path opacity="0.1" d="M317.386 63.6082H303.234V59.2084H309.575V46.102C310.125 46.3046 310.672 46.5118 311.218 46.7236V59.2084H317.382L317.386 63.6082Z" fill="#65079E"/>
<path opacity="0.1" d="M351.483 115.322H282.004C282.011 115.324 282.018 115.324 282.025 115.322H281.994H269.113V67.1965H272.765V102.769H289.449V81.7016H303.238V65.0795H317.389V81.712H331.171V102.779H351.486L351.483 115.322Z" fill="#65079E"/>
<path opacity="0.1" d="M269.113 116.8V164.574H351.486V116.8H269.113ZM373.835 220.805L373.952 182.988H351.486V166.066H269.113V249.135C275.866 249.416 282.629 249.334 289.373 248.89H289.491C292.712 248.683 295.918 248.388 299.11 248.006H299.182C316.214 246.022 332.867 241.571 348.618 234.792" fill="#65079E"/>
<path opacity="0.1" d="M383.772 166.052H402.986C402.821 175.753 400.874 185.282 396.611 194.081C393.07 201.393 388.145 207.785 382.322 213.37V182.978H383.772V166.052Z" fill="#65079E"/>
<path opacity="0.1" d="M403 164.574H383.772V124.647H394.178C399.559 137.228 402.983 151.043 403 164.574Z" fill="#65079E"/>
<path opacity="0.1" d="M260.747 80.5723H249.112V95.661H260.747V80.5723Z" fill="#65079E"/>
<path opacity="0.1" d="M260.747 111.848H249.112V115.322H260.747V111.848Z" fill="#65079E"/>
<path opacity="0.1" d="M260.747 116.797H249.112V126.933H260.747V116.797Z" fill="#65079E"/>
<path opacity="0.1" d="M260.747 143.124H249.112V158.212H260.747V143.124Z" fill="#65079E"/>
<path opacity="0.1" d="M260.747 174.399H249.112V189.488H260.747V174.399Z" fill="#65079E"/>
<path opacity="0.1" d="M260.747 217.255C260.86 217.255 260.974 217.255 261.092 217.279C260.978 217.279 260.864 217.279 260.747 217.259V220.764H249.112V205.675H260.747V217.255Z" fill="#65079E"/>
<path opacity="0.1" d="M260.747 236.947V248.6C256.853 248.28 252.975 247.832 249.112 247.256V236.947H260.747Z" fill="#65079E"/>
<path opacity="0.1" d="M202.817 163.465H152.953V164.574H202.817V163.465Z" fill="#65079E"/>
<path opacity="0.1" d="M202.817 166.049H152.953V170.297H202.817V166.049Z" fill="#65079E"/>
<path opacity="0.1" d="M202.817 184.221H152.953V191.053H202.817V184.221Z" fill="#65079E"/>
<path opacity="0.1" d="M202.817 204.978V211.809H163.815C162.117 210.515 160.444 209.186 158.796 207.823C157.65 206.88 156.518 205.913 155.369 204.978H202.817Z" fill="#65079E"/>
<path opacity="0.1" d="M202.817 225.73V232.579H198.699C194.067 230.488 189.53 228.21 185.086 225.744L202.817 225.73Z" fill="#65079E"/>
<path opacity="0.1" d="M299.189 121.428H289.373V131.25H299.189V121.428Z" fill="#65079E"/>
<path opacity="0.1" d="M86.6532 75.6647H76.8372V85.4867H86.6532V75.6647Z" fill="#65079E"/>
<path opacity="0.1" d="M86.6532 98.4791H76.8372V108.301H86.6532V98.4791Z" fill="#65079E"/>
<path opacity="0.1" d="M86.6532 121.294H76.8372V131.116H86.6532V121.294Z" fill="#65079E"/>
<path opacity="0.1" d="M86.6532 144.105H76.8372V153.927H86.6532V144.105Z" fill="#65079E"/>
<path opacity="0.1" d="M86.6532 166.919H76.8372V176.741H86.6532V166.919Z" fill="#65079E"/>
<path opacity="0.1" d="M86.6532 189.733H76.8372V199.555H86.6532V189.733Z" fill="#65079E"/>
<path opacity="0.1" d="M336.662 121.428H326.846V131.25H336.662V121.428Z" fill="#65079E"/>
<path opacity="0.1" d="M299.189 145.655H289.373V155.477H299.189V145.655Z" fill="#65079E"/>
<path opacity="0.1" d="M336.662 145.655H326.846V155.477H336.662V145.655Z" fill="#65079E"/>
<path opacity="0.1" d="M299.189 169.879H289.373V179.701H299.189V169.879Z" fill="#65079E"/>
<path opacity="0.1" d="M336.662 169.879H326.846V179.701H336.662V169.879Z" fill="#65079E"/>
<path opacity="0.1" d="M299.189 194.106H289.373V203.928H299.189V194.106Z" fill="#65079E"/>
<path opacity="0.1" d="M336.662 194.106H326.846V203.928H336.662V194.106Z" fill="#65079E"/>
<path opacity="0.1" d="M299.189 218.333H289.373V228.155H299.189V218.333Z" fill="#65079E"/>
<path opacity="0.1" d="M336.662 218.333H326.846V228.155H336.662V218.333Z" fill="#65079E"/>
<path opacity="0.1" d="M289.373 248.89V242.556H299.186V247.989L289.373 248.89Z" fill="#65079E"/>
<path opacity="0.1" d="M27.8121 103.038V108.657H61.4021V103.038H27.8121ZM31.1566 108.305H28.3954V103.394H31.1566V108.305ZM34.5011 108.305H31.7399V103.394H34.5011V108.305ZM37.8387 108.305H35.0775V103.394H37.8387V108.305ZM41.1832 108.305H38.422V103.394H41.1832V108.305ZM44.5243 108.305H41.7631V103.394H44.5243V108.305ZM47.8688 108.305H45.1076V103.394H47.8688V108.305ZM51.2133 108.305H48.4521V103.394H51.2133V108.305ZM54.5543 108.305H51.7931V103.394H54.5543V108.305ZM57.8954 108.305H55.1342V103.394H57.8954V108.305ZM61.2399 108.305H58.4787V103.394H61.2399V108.305Z" fill="#65079E"/>
<path opacity="0.1" d="M27.8121 119.394V125.013H61.4021V119.394H27.8121ZM31.1566 124.661H28.3954V119.75H31.1566V124.661ZM34.5011 124.661H31.7399V119.75H34.5011V124.661ZM37.8387 124.661H35.0775V119.75H37.8387V124.661ZM41.1832 124.661H38.422V119.75H41.1832V124.661ZM44.5243 124.661H41.7631V119.75H44.5243V124.661ZM47.8688 124.661H45.1076V119.75H47.8688V124.661ZM51.2133 124.661H48.4521V119.75H51.2133V124.661ZM54.5543 124.661H51.7931V119.75H54.5543V124.661ZM57.8954 124.661H55.1342V119.75H57.8954V124.661ZM61.2399 124.661H58.4787V119.75H61.2399V124.661Z" fill="#65079E"/>
<path opacity="0.1" d="M27.8121 135.754V141.369H61.4021V135.754H27.8121ZM31.1566 141.014H28.3954V136.103H31.1566V141.014ZM34.5011 141.014H31.7399V136.103H34.5011V141.014ZM37.8387 141.014H35.0775V136.103H37.8387V141.014ZM41.1832 141.014H38.422V136.103H41.1832V141.014ZM44.5243 141.014H41.7631V136.103H44.5243V141.014ZM47.8688 141.014H45.1076V136.103H47.8688V141.014ZM51.2133 141.014H48.4521V136.103H51.2133V141.014ZM54.5543 141.014H51.7931V136.103H54.5543V141.014ZM57.8954 141.014H55.1342V136.103H57.8954V141.014ZM61.2399 141.014H58.4787V136.103H61.2399V141.014Z" fill="#65079E"/>
<path opacity="0.1" d="M27.8121 152.11V157.726H61.4021V152.11H27.8121ZM31.1566 157.373H28.3954V152.455H31.1566V157.373ZM34.5011 157.373H31.7399V152.455H34.5011V157.373ZM37.8387 157.373H35.0775V152.455H37.8387V157.373ZM41.1832 157.373H38.422V152.455H41.1832V157.373ZM44.5243 157.373H41.7631V152.455H44.5243V157.373ZM47.8688 157.373H45.1076V152.455H47.8688V157.373ZM51.2133 157.373H48.4521V152.455H51.2133V157.373ZM54.5543 157.373H51.7931V152.455H54.5543V157.373ZM57.8954 157.373H55.1342V152.455H57.8954V157.373ZM61.2399 157.373H58.4787V152.455H61.2399V157.373Z" fill="#65079E"/>
<path opacity="0.1" d="M27.9744 168.459C28.1055 168.991 28.2608 169.516 28.4196 170.038V168.815H31.1808V173.723H29.7001C29.7415 173.84 29.7864 173.961 29.8347 174.068H61.4159V168.459H27.9744ZM34.5322 173.723H31.771V168.815H34.5322V173.723ZM37.8698 173.723H35.1086V168.815H37.8698V173.723ZM41.2143 173.723H38.4531V168.815H41.2143V173.723ZM44.5553 173.723H41.7941V168.815H44.5553V173.723ZM47.8998 173.723H45.1386V168.815H47.8998V173.723ZM51.2443 173.723H48.4831V168.815H51.2443V173.723ZM54.5854 173.723H51.8242V168.815H54.5854V173.723ZM57.9264 173.723H55.1652V168.815H57.9264V173.723ZM61.2709 173.723H58.5097V168.815H61.2709V173.723Z" fill="#65079E"/>
<path opacity="0.1" d="M35.754 184.815C35.8438 184.926 35.9266 185.05 36.0129 185.161H37.8387V187.52L38.4289 188.21V185.147H41.1901V190.099H40.0546C40.165 190.213 40.272 190.334 40.3997 190.445H61.3952V184.815H35.754ZM44.5415 190.099H41.7803V185.168H44.5415V190.099ZM47.886 190.099H45.1248V185.168H47.886V190.099ZM51.2305 190.099H48.4693V185.168H51.2305V190.099ZM54.5716 190.099H51.8104V185.168H54.5716V190.099ZM57.9126 190.099H55.1514V185.168H57.9126V190.099ZM61.2571 190.099H58.4959V185.168H61.2571V190.099Z" fill="#65079E"/>
<path opacity="0.1" d="M54.1815 201.172C54.4991 201.351 54.8201 201.517 55.141 201.693V201.52H57.9022V203.078C58.1024 203.164 58.2923 203.258 58.489 203.347V201.52H61.2502V204.511C61.3027 204.535 61.3569 204.555 61.4124 204.57V201.172H54.1815Z" fill="#65079E"/>
<path opacity="0.1" d="M260.743 217.255H261.088H260.743ZM238.56 165.392C238.626 165.614 238.685 165.835 238.743 166.052C238.691 165.835 238.629 165.614 238.56 165.392ZM73.5341 63.6083V65.0795H88.9519V63.6013L73.5341 63.6083ZM260.747 217.255H261.092H260.747ZM238.56 165.392C238.626 165.614 238.685 165.835 238.743 166.052C238.691 165.835 238.629 165.614 238.56 165.392ZM260.743 217.255H261.088H260.743ZM238.56 165.392C238.626 165.614 238.685 165.835 238.743 166.052C238.691 165.835 238.629 165.614 238.56 165.392Z" fill="#65079E"/>
<path opacity="0.1" d="M303.535 298C322.109 298 337.166 295.58 337.166 292.595C337.166 289.61 322.109 287.19 303.535 287.19C284.961 287.19 269.903 289.61 269.903 292.595C269.903 295.58 284.961 298 303.535 298Z" fill="#65079E"/>
<path opacity="0.1" d="M151.855 292.595C170.429 292.595 185.487 290.175 185.487 287.19C185.487 284.205 170.429 281.785 151.855 281.785C133.281 281.785 118.224 284.205 118.224 287.19C118.224 290.175 133.281 292.595 151.855 292.595Z" fill="#65079E"/>
<path d="M190.574 144.274C190.566 144.239 190.548 144.208 190.523 144.184C190.008 143.676 183.45 134.396 183.45 134.396C183.45 134.396 183.105 133.36 182.546 132.014C182.725 131.781 182.86 131.518 182.943 131.236C182.973 131.117 182.995 130.996 183.009 130.874C183.009 130.836 183.036 130.805 183.047 130.767C183.166 130.298 183.155 129.806 183.012 129.344C182.974 129.462 182.926 129.578 182.871 129.689C182.741 129.287 182.567 128.9 182.353 128.536C181.483 127.037 180.241 125.773 179.326 124.312C177.941 122.042 177.39 119.36 177.769 116.728C177.769 116.863 177.769 117.001 177.769 117.135C177.804 116.613 177.873 116.094 177.976 115.581C178.121 114.998 178.313 114.427 178.553 113.875C179.374 111.993 180.703 110.353 181.511 108.463C181.782 107.826 181.988 107.163 182.125 106.485C182.41 105.351 182.513 104.18 182.432 103.014C182.432 103.29 182.387 103.566 182.346 103.839C182.259 101.036 181.127 98.3666 179.174 96.3552C176.354 93.5198 172.306 92.4181 168.433 91.8379C166.806 91.6479 165.252 91.0544 163.912 90.1111C162.424 89.1475 160.501 88.9162 158.762 89.1268C156.763 89.3431 154.905 90.2622 153.519 91.7205C151.679 93.7443 150.882 96.6108 148.735 98.3168C147.434 99.3529 145.784 99.8364 144.269 100.541C142.754 101.245 141.322 102.268 140.835 103.78C140.835 103.78 140.835 103.76 140.835 103.749V103.836L140.814 103.891C140.31 105.68 141.284 107.5 141.791 109.285C142.319 111.133 142.354 113.084 142.381 114.994C142.419 117.329 142.454 119.667 142.416 122.005C142.398 122.924 142.367 123.853 142.298 124.768C141.481 125.015 140.688 125.334 139.927 125.721C139.154 126.225 136.262 129.351 136.262 129.351L130.605 150.977L130.681 151.064L130.605 151.357L130.891 151.291C131.692 152.155 134.084 154.614 136.665 156.147L136.907 160.388C136.907 160.388 137.197 164.643 141.108 166.401C141.197 167.876 141.477 173.864 140.183 176.237C139.286 177.97 138.865 179.91 138.961 181.859C138.961 181.859 139.413 185.458 138.899 187.35C138.598 188.615 138.576 189.93 138.833 191.205C138.833 191.205 138.833 191.622 138.833 192.341C138.833 196.171 138.878 208.445 138.833 209.833C138.767 211.474 138.833 235.735 138.833 235.735C138.833 235.735 138.512 247.861 137.483 251.145C136.455 254.429 136.714 265.305 136.714 265.305C136.714 265.305 136.068 278.259 138.35 280.815C138.35 280.929 138.329 281.046 138.326 281.16C138.326 281.212 138.326 281.271 138.326 281.323C138.298 282.307 138.488 283.353 139.333 283.674C141.059 284.338 143.341 286.327 143.772 286.897C144.204 287.467 146.713 288.886 149.985 288.506C152.035 288.276 154.097 288.181 156.159 288.223C156.159 288.223 157.45 287.988 157.033 286.382C156.763 285.381 155.756 283.84 155.038 282.828C155.169 282.863 155.297 282.891 155.417 282.915L155.542 282.939H155.638C155.691 282.942 155.744 282.942 155.797 282.939H155.866C155.93 282.944 155.995 282.944 156.059 282.939C156.926 282.856 160.156 284.362 160.733 285.356C161.309 286.351 163.342 287.107 164.875 287.297C165.786 287.408 168.084 287.221 170.014 286.973C170.985 286.872 171.948 286.697 172.892 286.448C173.348 286.275 173.445 285.722 173.313 285.101C173.158 284.311 172.737 283.599 172.119 283.084C171.56 282.687 170.821 281.64 170.276 280.784L170.131 280.552C171.094 279.634 172.834 276.629 173.362 276.008C174.004 275.251 172.326 247.591 172.326 247.591V233.725L174.898 220.602L176.696 213.656L178.239 203.171C178.239 203.171 180.938 190.925 180.106 189.723C180.106 189.699 179.416 177.09 178.691 174.061C178.377 172.711 178.456 169.671 178.643 166.715C178.837 166.522 178.973 166.277 179.034 166.009C179.095 165.741 179.079 165.461 178.988 165.203C178.936 165.025 178.869 164.853 178.787 164.688C178.787 164.636 178.787 164.581 178.787 164.529C180.278 163.843 181.836 163.313 183.437 162.947C186.008 162.443 185.366 161.117 185.366 161.117C185.366 161.117 185.946 159.981 186.329 159.287C186.712 158.592 186.395 152.466 186.329 151.961C186.305 151.758 186.146 150.632 185.963 149.354C186.788 148.767 187.861 148.038 189.032 147.347C191.258 146.028 190.757 144.636 190.574 144.274ZM157.026 231.833C157.026 231.833 155.096 236.757 155.87 238.018C156.643 239.279 155.742 243.958 155.742 243.958L155.096 250.903C155.096 250.903 153.298 263.785 153.94 266.814C154.444 269.19 154.63 276.287 154.689 279.247C154.645 279.264 154.602 279.285 154.561 279.309L154.475 279.354C154.772 278.19 154.648 275.835 153.174 271.097L153.05 251.525C153.05 251.525 152.822 228.918 154.606 226.39C156.391 223.862 157.022 219.569 157.022 219.569C157.022 219.569 156.636 225.761 156.384 227.402C156.132 229.042 157.026 231.833 157.026 231.833ZM153.433 280.48C153.416 280.521 153.395 280.563 153.381 280.601L153.284 280.476C153.334 280.481 153.383 280.482 153.433 280.48Z" fill="url(#paint0_linear)"/>
<path d="M173.11 288.237C172.112 288.62 166.704 289.273 165.192 289.09C163.68 288.907 161.678 288.14 161.109 287.138C160.539 286.137 157.347 284.624 156.491 284.721C156.14 284.731 155.79 284.682 155.455 284.576C154.865 284.397 154.288 284.175 153.73 283.913C153.652 283.477 153.664 283.031 153.768 282.6C153.787 282.514 153.813 282.428 153.843 282.345C154.045 281.778 154.462 281.314 155.003 281.053L155.127 280.995C155.367 280.891 155.617 280.815 155.873 280.767C158.586 280.245 169.779 281.292 169.779 281.292C169.779 281.292 170.093 281.854 170.525 282.552C171.063 283.415 171.795 284.469 172.347 284.866C172.959 285.389 173.374 286.106 173.524 286.897C173.655 287.508 173.558 288.067 173.11 288.237Z" fill="white"/>
<path opacity="0.1" d="M173.11 288.237C172.112 288.62 166.707 289.273 165.195 289.09C163.684 288.907 161.682 288.137 161.109 287.138C160.536 286.14 157.35 284.624 156.494 284.721C155.638 284.818 153.733 283.913 153.733 283.913C153.733 283.913 153.436 282.531 154.299 281.589L156.025 282.815C156.025 282.815 160.643 284.248 161.499 285.577C162.355 286.907 163.915 287.65 166.169 287.784C167.853 287.895 171.722 287.239 173.534 286.911C173.655 287.508 173.562 288.067 173.11 288.237Z" fill="black"/>
<path d="M156.587 289.998C154.552 289.958 152.515 290.054 150.492 290.285C147.251 290.665 144.776 289.249 144.345 288.665C143.914 288.081 141.68 286.109 139.965 285.419C139.126 285.094 138.93 284.037 138.968 283.049C138.968 282.998 138.968 282.939 138.968 282.887C138.999 282.261 139.092 281.64 139.244 281.033L152.673 280.746L153.837 282.324L154.016 282.566L154.724 283.529C154.724 283.529 155.045 283.951 155.466 284.566C156.177 285.602 157.171 287.132 157.437 288.143C157.861 289.763 156.587 289.998 156.587 289.998Z" fill="white"/>
<path opacity="0.1" d="M156.587 289.998C154.552 289.958 152.515 290.054 150.492 290.285C147.255 290.665 144.776 289.249 144.348 288.665C143.92 288.081 141.68 286.092 139.965 285.425C139.126 285.101 138.93 284.044 138.968 283.056C139.927 283.281 141.943 283.854 142.733 284.852C143.769 286.185 145.622 288.427 148.256 288.568C150.382 288.682 155.559 288.302 157.457 288.15C157.864 289.763 156.587 289.998 156.587 289.998Z" fill="black"/>
<path opacity="0.1" d="M154.989 281.039C154.834 282.193 154.354 282.504 154.009 282.573C153.925 282.589 153.838 282.589 153.754 282.573C153.708 282.57 153.663 282.563 153.619 282.552C153.619 282.552 141.56 285.218 139.123 283.06C139.061 283.004 139.003 282.944 138.95 282.88C138.982 282.254 139.075 281.633 139.226 281.026L152.656 280.739L153.819 282.317C154.021 281.751 154.438 281.286 154.979 281.026L154.989 281.039Z" fill="black"/>
<path opacity="0.1" d="M170.521 282.538C170.252 282.835 170.028 283.004 169.886 282.946C169.251 282.69 164.046 281.803 162.393 282.566C160.74 283.329 155.145 282.69 155.145 282.69C155.145 282.69 155.145 282.027 155.114 280.963C155.353 280.86 155.603 280.784 155.859 280.736C158.572 280.214 169.765 281.26 169.765 281.26C169.765 281.26 170.093 281.841 170.521 282.538Z" fill="black"/>
<path d="M178.397 204.418L176.872 214.965L175.098 221.955L172.558 235.169V249.156C172.558 249.156 174.207 276.985 173.572 277.745C172.937 278.504 170.525 282.832 169.89 282.58C169.254 282.328 164.05 281.437 162.396 282.196C160.743 282.956 155.148 282.324 155.148 282.324C155.148 282.324 155.02 271.525 154.385 268.475C153.75 265.426 155.528 252.464 155.528 252.464L156.163 245.478C156.163 245.478 157.053 240.774 156.291 239.503C155.528 238.232 157.433 233.287 157.433 233.287C157.433 233.287 156.546 230.486 156.801 228.835C157.057 227.184 157.433 220.957 157.433 220.957C157.433 220.957 156.801 225.281 155.038 227.82C153.274 230.358 153.498 253.107 153.498 253.107L153.623 272.792C156.801 283.215 153.623 282.196 153.623 282.196C153.623 282.196 141.563 284.866 139.126 282.704C136.69 280.542 137.387 266.935 137.387 266.935C137.387 266.935 137.135 256.008 138.15 252.706C139.164 249.405 139.485 237.203 139.485 237.203C139.485 237.203 139.42 212.803 139.485 211.156C139.534 209.775 139.485 197.407 139.485 193.543C139.485 192.824 139.485 192.4 139.485 192.4L140.942 188.78L158.199 186.618H166.455C166.455 186.618 178.881 189.54 180.165 190.801C180.192 190.822 180.215 190.847 180.234 190.877C181.065 192.096 178.397 204.418 178.397 204.418Z" fill="#65079E"/>
<path opacity="0.1" d="M157.443 259.821C157.443 259.821 161.24 268.969 163.031 269.605C164.823 270.24 157.443 259.821 157.443 259.821Z" fill="black"/>
<path opacity="0.1" d="M158.848 273.29C158.848 273.29 171.667 273.925 171.539 275.324C171.412 276.722 158.848 273.29 158.848 273.29Z" fill="black"/>
<path opacity="0.1" d="M141.698 269.632C142.205 270.112 151.476 271.014 150.713 271.891C149.95 272.768 142.46 274.474 142.46 274.474L141.698 269.632Z" fill="black"/>
<path opacity="0.1" d="M140.176 253.849C140.176 254.229 142.081 266.047 142.592 266.555C143.102 267.063 147.289 267.57 147.289 267.57L140.176 253.849Z" fill="black"/>
<path d="M153.999 92.311C152.18 94.3452 151.393 97.229 149.274 98.9488C147.986 99.9849 146.357 100.479 144.859 101.183C143.361 101.888 141.877 102.962 141.432 104.557C140.935 106.353 141.894 108.187 142.398 109.983C142.919 111.841 142.951 113.782 142.982 115.726C143.016 118.078 143.054 120.43 143.013 122.782C142.951 126.446 142.647 130.28 140.704 133.385C147.721 135.619 155.183 135.923 162.541 136.21C163.955 136.311 165.376 136.275 166.783 136.103C168.003 135.859 169.209 135.554 170.397 135.187C172.746 134.565 175.167 134.255 177.597 134.265C178.656 134.265 179.737 134.331 180.758 134.055C181.78 133.778 182.764 133.07 183.04 132.048C183.285 131.129 182.926 130.152 182.456 129.327C181.6 127.821 180.385 126.564 179.467 125.079C178.53 123.51 177.974 121.743 177.844 119.92C177.714 118.097 178.013 116.269 178.718 114.583C179.533 112.687 180.845 111.036 181.645 109.137C182.465 107.098 182.684 104.865 182.274 102.706C181.864 100.546 180.843 98.5492 179.333 96.9527C176.547 94.1 172.551 92.9949 168.726 92.4077C167.116 92.2174 165.58 91.6235 164.26 90.6809C162.793 89.7139 160.891 89.4791 159.173 89.6932C157.19 89.9155 155.353 90.8448 153.999 92.311Z" fill="#3F3D56"/>
<g opacity="0.1">
<path opacity="0.1" d="M178.825 112.591C178.122 114.255 177.82 116.061 177.945 117.864C178.023 116.575 178.32 115.309 178.825 114.12C179.637 112.224 180.948 110.574 181.749 108.674C182.403 107.088 182.679 105.371 182.553 103.66C182.482 104.859 182.21 106.038 181.749 107.148C180.948 109.047 179.637 110.694 178.825 112.591Z" fill="black"/>
<path opacity="0.1" d="M143.085 115.257C143.106 116.611 143.127 117.968 143.13 119.322C143.13 117.457 143.113 115.595 143.085 113.734C143.057 111.803 143.023 109.848 142.502 107.987C142.157 106.806 141.646 105.607 141.466 104.416C141.159 106.108 142.032 107.825 142.502 109.513C143.023 111.358 143.057 113.326 143.085 115.257Z" fill="black"/>
<path opacity="0.1" d="M180.876 132.079C179.84 132.359 178.777 132.297 177.717 132.29C175.289 132.274 172.87 132.579 170.521 133.195C169.333 133.56 168.127 133.864 166.907 134.106C165.499 134.281 164.077 134.318 162.662 134.217C155.552 133.937 148.342 133.637 141.532 131.603C141.33 132.054 141.099 132.492 140.842 132.915C147.859 135.146 155.321 135.453 162.676 135.74C164.091 135.841 165.513 135.804 166.921 135.629C168.136 135.389 169.338 135.086 170.521 134.721C172.865 134.103 175.28 133.795 177.704 133.806C178.763 133.806 179.84 133.872 180.862 133.592C181.883 133.312 182.867 132.611 183.143 131.589C183.26 131.115 183.248 130.619 183.109 130.152C182.801 131.119 181.852 131.792 180.876 132.079Z" fill="black"/>
</g>
<path d="M170.652 127.987C170.397 128.56 169.32 133.512 169.065 134.02C168.809 134.528 167.415 142.654 167.287 143.11C167.159 143.566 158.096 141.204 158.096 141.204L152.639 136.628L147.03 131.043C147.03 131.043 146.865 126.004 150.996 124.388C151.277 124.278 151.565 124.188 151.859 124.119C156.87 122.913 156.366 107.666 156.366 107.666L166.652 112.11C166.652 112.11 164.747 121.007 164.812 122.723C164.83 123.3 165.282 123.659 165.872 123.877C166.784 124.137 167.734 124.239 168.681 124.181C168.681 124.181 170.908 127.417 170.652 127.987Z" fill="#FBBEBE"/>
<path d="M189.066 144.695L190.526 145.078C190.526 145.078 191.606 146.722 189.066 148.252C187.453 149.233 185.905 150.316 184.431 151.495L176.924 153.782L175.477 149.24L182.463 143.935L189.066 144.695Z" fill="#65079E"/>
<path opacity="0.1" d="M189.066 144.695L190.526 145.078C190.526 145.078 191.606 146.722 189.066 148.252C187.453 149.233 185.905 150.316 184.431 151.495L176.924 153.782L175.477 149.24L182.463 143.935L189.066 144.695Z" fill="black"/>
<path d="M134.28 149.081L131.36 151.941C131.36 151.941 136.627 158.04 140.68 158.42C144.732 158.8 147.344 153.782 147.344 153.782L143.838 148.256L134.28 149.081Z" fill="#65079E"/>
<path opacity="0.1" d="M134.28 149.081L131.36 151.941C131.36 151.941 136.627 158.04 140.68 158.42C144.732 158.8 147.344 153.782 147.344 153.782L143.838 148.256L134.28 149.081Z" fill="black"/>
<path opacity="0.1" d="M162.017 117.629C167.627 117.629 172.174 113.079 172.174 107.465C172.174 101.852 167.627 97.3015 162.017 97.3015C156.407 97.3015 151.859 101.852 151.859 107.465C151.859 113.079 156.407 117.629 162.017 117.629Z" fill="black"/>
<path d="M162.017 116.866C167.627 116.866 172.174 112.316 172.174 106.702C172.174 101.089 167.627 96.5382 162.017 96.5382C156.407 96.5382 151.859 101.089 151.859 106.702C151.859 112.316 156.407 116.866 162.017 116.866Z" fill="#FBBEBE"/>
<path opacity="0.1" d="M180.24 192.03C177.928 192.295 175.649 192.805 173.444 193.553C169.648 194.817 139.896 193.574 139.482 193.553C139.482 192.835 139.482 192.41 139.482 192.41L140.938 188.791L158.196 186.629H166.452C166.452 186.629 178.877 189.55 180.161 190.811C180.213 191.571 180.24 192.03 180.24 192.03Z" fill="black"/>
<path opacity="0.1" d="M170.652 127.987C170.397 128.56 169.32 133.512 169.065 134.02C168.809 134.528 167.415 142.654 167.287 143.11C167.159 143.566 158.096 141.204 158.096 141.204L152.639 136.628L147.03 131.043C147.03 131.043 146.865 126.004 150.996 124.388L161.254 136.189L165.872 123.877C166.784 124.137 167.734 124.239 168.681 124.181C168.681 124.181 170.908 127.417 170.652 127.987Z" fill="black"/>
<path d="M161.254 136.569L150.754 124.481C150.14 124.089 149.437 123.855 148.71 123.801C147.983 123.748 147.254 123.876 146.588 124.174C144.238 125.193 141.318 126.018 140.555 126.526C139.792 127.033 136.935 130.176 136.935 130.176L145.446 152.455L141.698 167.13C141.698 167.13 142.271 174.627 140.811 177.359C139.922 179.106 139.505 181.055 139.603 183.013C139.603 183.013 140.048 186.636 139.54 188.538C139.244 189.811 139.222 191.132 139.475 192.413C139.475 192.413 169.637 193.684 173.444 192.413C175.649 191.664 177.927 191.153 180.24 190.89C180.24 190.89 179.55 178.181 178.86 175.132C178.17 172.082 179.433 160.457 179.433 160.457L178.608 148.004L183.557 135.225C183.557 135.225 180.876 127.033 178.08 126.208C178.08 126.208 173.003 124.999 171.922 124.429C170.842 123.86 167.667 123.348 167.667 123.348L166 123.908L161.254 136.569Z" fill="#65079E"/>
<path opacity="0.1" d="M175.903 147.583L153.809 146.08C153.25 146.042 152.766 146.465 152.728 147.024L150.356 181.928C150.318 182.488 150.74 182.972 151.299 183.01L173.393 184.513C173.952 184.551 174.436 184.129 174.474 183.569L176.846 148.665C176.884 148.106 176.462 147.621 175.903 147.583Z" fill="black"/>
<path d="M176.664 146.825L154.57 145.322C154.011 145.284 153.527 145.706 153.489 146.266L151.117 181.17C151.079 181.73 151.501 182.214 152.06 182.252L174.154 183.755C174.713 183.793 175.197 183.371 175.235 182.811L177.607 147.907C177.645 147.347 177.223 146.863 176.664 146.825Z" fill="#3F3D56"/>
<path d="M175.934 149.561L154.922 148.131L152.763 179.907L173.775 181.337L175.934 149.561Z" fill="white"/>
<path opacity="0.1" d="M174.05 157.672L156.886 156.469L156.551 161.256L173.716 162.458L174.05 157.672Z" fill="black"/>
<path opacity="0.1" d="M173.429 176.694L170.705 176.508L170.536 179.003L173.26 179.188L173.429 176.694Z" fill="black"/>
<path opacity="0.1" d="M170.742 170.673L156.8 169.724L156.63 172.219L170.573 173.168L170.742 170.673Z" fill="black"/>
<path d="M173.334 148.373L158.816 147.385L158.555 151.22L173.073 152.208L173.334 148.373Z" fill="#3F3D56"/>
<path opacity="0.1" d="M173.334 148.373L158.816 147.385L158.555 151.22L173.073 152.208L173.334 148.373Z" fill="black"/>
<path opacity="0.1" d="M162.524 191.329C162.524 191.329 162.396 210.137 157.443 220.937C157.443 220.937 163.414 206.704 163.414 206.134C163.414 205.565 166.714 199.59 165.83 197.811C164.947 196.033 162.524 191.329 162.524 191.329Z" fill="black"/>
<path opacity="0.1" d="M162.793 104.16C162.603 102.496 163.011 100.818 163.943 99.4254C163.832 100.821 164.226 102.21 165.054 103.338C165.881 104.467 167.087 105.26 168.45 105.573C168.334 105.472 168.251 105.338 168.212 105.189C168.173 105.039 168.18 104.882 168.233 104.737C168.94 105.538 169.482 106.488 170.283 107.193C171.084 107.897 172.285 108.318 173.227 107.818C174.508 107.127 174.521 105.307 174.19 103.891C173.479 100.875 172.02 98.0878 169.948 95.7853C169.431 95.0894 168.76 94.5226 167.988 94.1296C167.215 93.7365 166.362 93.5278 165.496 93.5198C163.535 93.3678 161.499 93.5405 159.742 94.4212C158.753 94.961 157.827 95.6084 156.981 96.3517L152.149 100.296C151.684 100.631 151.286 101.05 150.975 101.532C150.768 101.935 150.644 102.375 150.609 102.827C150.486 104.119 150.725 105.419 151.299 106.583C151.873 107.746 152.761 108.726 153.861 109.413C153.837 108.392 154.118 107.388 154.667 106.527C155.216 105.666 156.008 104.987 156.943 104.578C157.089 104.701 157.208 104.853 157.291 105.025C157.373 105.197 157.418 105.385 157.423 105.576L158.441 103.76C158.592 103.429 158.831 103.146 159.131 102.941C159.759 102.596 160.543 103.003 161.078 103.49C161.613 103.977 162.134 104.585 162.852 104.661L162.879 101.957" fill="black"/>
<path d="M162.793 103.78C162.603 102.115 163.01 100.435 163.943 99.0421C163.632 101.805 165.713 104.658 168.454 105.189C168.337 105.089 168.254 104.956 168.215 104.807C168.176 104.659 168.184 104.502 168.236 104.357C168.944 105.158 169.486 106.105 170.286 106.813C171.087 107.521 172.288 107.939 173.231 107.434C174.511 106.744 174.525 104.924 174.194 103.511C173.482 100.496 172.024 97.7079 169.952 95.4055C169.309 94.6213 168.499 93.9911 167.58 93.5612C166.916 93.3153 166.217 93.1732 165.51 93.1399C163.549 92.9879 161.513 93.1572 159.756 94.0378C158.768 94.58 157.842 95.2286 156.995 95.9718L152.163 99.9158C151.697 100.25 151.299 100.67 150.989 101.152C150.781 101.555 150.657 101.995 150.623 102.447C150.5 103.739 150.739 105.038 151.313 106.201C151.888 107.364 152.775 108.344 153.875 109.03C153.852 108.009 154.133 107.005 154.682 106.144C155.231 105.283 156.022 104.605 156.957 104.195C157.103 104.318 157.221 104.47 157.304 104.642C157.386 104.814 157.432 105.002 157.436 105.193L158.451 103.383C158.602 103.052 158.841 102.769 159.142 102.565C159.77 102.219 160.553 102.627 161.088 103.114C161.623 103.601 162.144 104.205 162.862 104.285L162.89 101.577" fill="#3F3D56"/>
<path d="M167.605 167.889C166.718 167.44 152.049 169.73 152.049 169.73C152.049 169.73 149.633 169.039 143.793 168.079C137.953 167.119 137.58 161.407 137.58 161.407L136.942 149.972L138.912 148.245L147.355 153.771C147.355 153.771 147.486 156.565 147.355 157.069C147.272 157.415 147.051 157.826 147.072 158.105C147.078 158.181 147.109 158.253 147.16 158.309C147.212 158.365 147.28 158.403 147.355 158.416C147.928 158.561 155.735 159.825 155.735 159.825C155.735 159.825 173.831 158.585 178.342 164.684C178.7 165.132 178.97 165.643 179.139 166.19C180.258 170.359 168.409 168.287 167.605 167.889Z" fill="#FBBEBE"/>
<path opacity="0.1" d="M179.15 166.214C178.46 166.522 178.032 166.743 178.032 166.743C178.032 166.743 171.557 166.553 167.919 165.234C164.281 163.914 159.859 164.149 159.859 164.149C159.859 164.149 144.7 161.538 147.051 158.13C147.057 158.205 147.089 158.277 147.14 158.333C147.191 158.389 147.259 158.427 147.334 158.44C147.907 158.585 155.714 159.849 155.714 159.849C155.714 159.849 173.81 158.61 178.321 164.709C178.69 165.154 178.971 165.665 179.15 166.214Z" fill="black"/>
<path d="M185.445 146.094C185.445 146.094 186.336 152.383 186.398 152.894C186.46 153.405 186.781 159.563 186.398 160.264C186.015 160.965 185.445 162.105 185.445 162.105C185.445 162.105 186.08 163.438 183.54 163.949C181 164.46 178.018 165.98 178.018 165.98C178.018 165.98 171.539 165.79 167.922 164.457C164.305 163.123 159.859 163.376 159.859 163.376C159.859 163.376 140.617 160.07 148.873 156.037C157.129 152.003 162.969 157.466 162.969 157.466L172.174 156.897C172.174 156.897 175.605 154.797 176.558 154.99C177.23 155.076 177.914 154.966 178.525 154.673L178.591 148L185.445 146.094Z" fill="#FBBEBE"/>
<path opacity="0.1" d="M138.767 130.656L136.924 130.56L131.34 152.317C131.34 152.317 137.369 150.791 139.968 152.317C142.567 153.844 147.334 154.158 147.334 154.158L145.556 136.814L138.767 130.656Z" fill="black"/>
<path d="M138.767 130.273L136.924 130.176L131.34 151.934C131.34 151.934 137.369 150.407 139.968 151.934C142.567 153.46 147.334 153.775 147.334 153.775L145.556 136.431L138.767 130.273Z" fill="#65079E"/>
<path opacity="0.1" d="M181.003 135.039L183.54 135.612C183.54 135.612 190.019 144.937 190.526 145.458C191.033 145.98 188.11 147.876 186.905 147.876C185.701 147.876 179.795 148.567 178.08 150.162C176.364 151.758 177.079 143.728 177.079 143.545C177.079 143.362 179.209 138.296 179.209 138.296L181.003 135.039Z" fill="black"/>
<path d="M181.003 134.659L183.54 135.229C183.54 135.229 190.019 144.571 190.526 145.078C191.033 145.586 188.11 147.496 186.905 147.496C185.701 147.496 179.795 148.187 178.08 149.782C176.364 151.378 177.079 143.348 177.079 143.165C177.079 142.982 179.222 137.898 179.222 137.898L181.003 134.659Z" fill="#65079E"/>
<g opacity="0.1">
<path opacity="0.1" d="M163.925 99.0732C163.91 98.8083 163.916 98.5428 163.943 98.2788C163.417 99.0679 163.055 99.9546 162.879 100.886V101.688C162.879 101.688 162.879 101.67 162.879 101.66V101.85C162.879 102.409 162.879 102.972 162.862 103.532H162.814V103.791C162.814 103.701 162.814 103.615 162.797 103.525C162.106 103.414 161.613 102.834 161.099 102.371C160.584 101.909 159.78 101.467 159.152 101.822C158.851 102.026 158.612 102.31 158.462 102.641L157.436 104.45C157.432 104.26 157.387 104.073 157.304 103.901C157.221 103.73 157.103 103.578 156.957 103.456C156.022 103.865 155.23 104.543 154.681 105.404C154.132 106.265 153.851 107.27 153.875 108.291C152.932 107.7 152.143 106.892 151.573 105.936C151.004 104.979 150.67 103.901 150.599 102.789C150.539 104.03 150.811 105.264 151.387 106.365C151.963 107.466 152.821 108.393 153.875 109.051C153.852 108.03 154.133 107.026 154.682 106.165C155.231 105.304 156.022 104.626 156.957 104.216C157.103 104.339 157.221 104.491 157.304 104.663C157.386 104.835 157.432 105.023 157.436 105.214L158.451 103.404C158.602 103.073 158.841 102.79 159.142 102.585C159.77 102.24 160.553 102.648 161.088 103.135C161.623 103.622 162.144 104.226 162.862 104.305C162.862 103.421 162.871 102.539 162.89 101.66C163.059 100.737 163.411 99.8577 163.925 99.0732Z" fill="black"/>
<path opacity="0.1" d="M162.759 102.551C162.776 102.316 162.804 102.081 162.838 101.86L162.876 100.907C162.772 101.448 162.733 102 162.759 102.551Z" fill="black"/>
<path opacity="0.1" d="M173.231 106.671C172.288 107.175 171.087 106.754 170.286 106.049C169.486 105.345 168.944 104.395 168.236 103.594C168.184 103.739 168.177 103.896 168.216 104.046C168.254 104.195 168.337 104.329 168.454 104.43C168.385 104.43 168.319 104.395 168.254 104.378C168.944 105.172 169.493 106.105 170.286 106.795C171.08 107.486 172.288 107.921 173.231 107.417C174.173 106.913 174.442 105.732 174.359 104.582C174.297 105.486 173.973 106.27 173.231 106.671Z" fill="black"/>
<path opacity="0.1" d="M168.233 104.371C167.079 104.056 166.048 103.396 165.28 102.479C164.511 101.561 164.041 100.431 163.932 99.239C163.736 101.95 165.779 104.668 168.454 105.189C168.34 105.09 168.258 104.96 168.219 104.814C168.179 104.668 168.184 104.514 168.233 104.371Z" fill="black"/>
</g>
<path d="M333.987 160.816C333.987 160.816 332.628 160.626 332.628 158.648C332.628 156.669 331.654 152.963 331.654 152.963C331.654 152.963 330.812 146.515 329.649 145.493C328.486 144.471 326.991 138.468 326.991 138.468C326.991 138.468 326.736 135.212 326.215 134.51C325.693 133.809 324.989 132.093 323.95 129.644C322.912 127.196 318.59 125.517 318.59 125.517C318.59 125.517 310.759 120.972 308.54 119.491C308.337 119.368 308.147 119.224 307.973 119.063C307.587 118.558 305.903 118.548 305.903 118.548C305.727 117.432 305.557 116.155 305.502 114.998C305.502 114.873 305.502 114.749 305.502 114.625C307.977 113.161 309.841 110.853 310.752 108.125C310.793 107.994 310.828 107.859 310.866 107.724C311.017 107.678 311.157 107.599 311.276 107.495C311.395 107.39 311.491 107.261 311.556 107.117C311.753 106.671 311.76 106.153 312.008 105.735C312.298 105.245 312.85 104.982 313.285 104.616C314.383 103.68 314.666 102.109 314.614 100.683C314.58 99.5221 314.393 98.3548 314.466 97.2048C314.466 97.1081 314.466 97.0114 314.486 96.9147C314.507 96.7454 314.531 96.5693 314.562 96.4035C314.732 95.547 315.101 94.7389 315.308 93.8893C315.515 93.0397 315.536 92.0831 315.053 91.3509C314.345 90.2769 312.871 90.0627 311.577 89.9695C310.11 89.8452 308.816 90.004 307.86 88.7849C307.421 88.1482 306.927 87.5518 306.382 87.0029C306.189 86.8233 304.311 85.6732 304.311 85.6007C302.474 84.746 300.39 84.5853 298.444 85.1483C297.467 85.4315 296.553 85.8943 295.562 86.1256C293.436 86.6299 290.985 86.0842 289.177 87.3033C288.169 87.994 287.565 89.0957 286.999 90.1629C286.539 91.0424 286.071 91.9231 285.597 92.8049C284.831 94.2519 284.058 95.7232 283.737 97.3256C283.67 97.6757 283.627 98.0299 283.609 98.3859C283.609 98.5137 283.609 98.6415 283.609 98.7692C283.609 98.8245 283.609 98.8798 283.609 98.935C283.609 99.0524 283.609 99.1699 283.63 99.2804C283.651 99.3909 283.63 99.422 283.654 99.4945C283.678 99.567 283.685 99.7293 283.706 99.8398C283.727 99.9504 283.768 100.147 283.81 100.296C283.81 100.361 283.851 100.424 283.872 100.489C283.892 100.555 283.948 100.721 283.993 100.834C284.037 100.948 284.041 100.955 284.068 101.014C284.12 101.135 284.182 101.252 284.244 101.359C284.272 101.404 284.293 101.449 284.32 101.494C284.415 101.656 284.521 101.81 284.638 101.957C285.373 102.879 286.464 103.466 287.268 104.33C287.268 104.364 287.268 104.399 287.268 104.433C287.268 104.526 287.268 104.62 287.268 104.716C287.317 106.642 287.836 108.527 288.779 110.206C289.722 111.885 291.062 113.309 292.68 114.352C292.68 114.483 292.697 114.618 292.704 114.752C292.771 115.776 292.759 116.804 292.666 117.826C292.525 117.661 292.349 117.529 292.151 117.441C291.953 117.352 291.737 117.309 291.52 117.315C291.372 117.308 291.223 117.32 291.078 117.353L291.047 117.329V117.36C290.288 117.546 289.353 118.337 288.459 120.586C288.459 120.586 285.739 123.652 283.668 123.525C281.597 123.397 276.354 126.719 276.354 126.719C276.354 126.719 271.239 130.038 270.142 133.423C269.528 135.342 268.791 137.22 267.936 139.045L261.596 152.072L260.433 162.433C260.433 162.433 261.078 167.029 260.95 167.734C260.823 168.439 263.605 174.759 263.605 174.759C263.605 174.759 272.796 190.914 276.551 191.743L276.82 191.557C276.982 191.638 277.152 191.701 277.328 191.743L278.101 191.201C278.149 191.808 278.128 192.419 278.039 193.021C277.524 194.62 278.235 205.029 279.14 207.07C280.044 209.111 279.723 235.877 279.723 235.877L279.595 238.236C279.595 238.236 279.595 238.312 279.626 238.443L279.595 239.002L279.688 239.051C279.785 239.801 279.754 240.562 279.595 241.302C279.271 242.338 279.14 245.264 279.14 245.264C279.14 245.264 276.551 261.799 277.78 265.122C279.009 268.444 280.047 272.084 280.047 272.084C280.047 272.084 281.342 276.229 280.11 276.919C278.877 277.61 275.388 278.836 276.099 280.559C276.755 282.155 279.243 286.43 279.613 287.056L279.581 287.401L279.074 292.902C279.156 293.629 279.353 294.338 279.657 295.002C280.213 296.204 281.29 297.444 283.347 297.309C283.692 297.285 284.089 297.247 284.479 297.195C288.238 296.688 292.863 295.009 292.863 295.009C292.623 294.857 292.404 294.675 292.211 294.467C292.026 294.288 291.879 294.073 291.78 293.836C291.681 293.598 291.631 293.343 291.634 293.086C291.689 292.081 289.815 287.311 289.346 286.133L289.239 285.871C289.239 285.871 293.512 281.399 292.801 277.441C292.801 277.441 288.072 274.678 289.629 273.158C291.185 271.639 293.967 267.287 293.967 267.287C293.967 267.287 294.095 251.004 293.967 248.576C293.834 246.887 293.914 245.188 294.205 243.52C294.257 243.271 294.319 243.026 294.385 242.781C296.54 243.106 298.715 243.271 300.894 243.274C301.691 243.274 302.496 243.258 303.311 243.226C303.311 243.456 303.321 243.705 303.342 243.972C303.521 248.006 303.856 255.082 304.129 257.71C304.515 261.475 306.652 271.632 306.652 271.632C306.652 271.632 302.575 274.246 307.363 280.701C307.363 280.701 307.363 283.036 307.045 283.377C306.706 284.485 306.433 285.612 306.227 286.752C306.027 287.964 305.944 289.197 306.268 289.832C307.045 291.359 311.705 291.234 311.705 291.234C311.742 291.226 311.78 291.22 311.818 291.217C312.698 291.124 313.587 291.208 314.434 291.463C315.281 291.717 316.068 292.139 316.751 292.702C318.521 294.125 325.238 293.503 328.879 293.048C330.305 292.864 331.257 292.702 331.257 292.702C331.303 292.541 331.319 292.372 331.306 292.205C331.268 291.31 330.567 289.349 325.818 287.598C325.818 287.598 321.351 284.593 321.414 281.975H321.314H320.799C321.124 281.965 321.351 281.965 321.351 281.965C321.351 281.965 319.602 275.579 320.316 275.058C321.03 274.536 318.891 267.46 318.891 267.46C318.891 267.46 317.665 255.58 317.596 254.751C317.601 254.036 317.71 253.327 317.921 252.644L317.596 246.127C317.596 246.127 317.534 243.962 317.596 243.257C317.589 242.646 317.541 242.035 317.451 241.43C317.42 241.188 317.389 240.936 317.355 240.688C319.029 240.263 320.116 239.873 320.116 239.873L319.923 217.2C321.345 214.437 321.607 208.372 321.6 204.076C321.6 201.313 321.476 199.269 321.476 199.269L323.419 196.095C323.419 196.095 323.868 192.296 323.157 191.464C322.843 191.087 322.984 190.697 323.243 190.376C323.379 190.264 323.523 190.162 323.674 190.072C323.657 190.048 323.642 190.022 323.629 189.996C323.765 189.882 323.909 189.78 324.061 189.688C324.061 189.688 323.371 188.618 323.988 188.165C324.568 188.559 325.086 188.873 325.479 189.098C325.452 189.35 325.424 189.495 325.424 189.495L325.59 189.15C325.97 189.364 326.201 189.495 326.201 189.495C326.201 189.495 329.245 183.427 329.179 182.536C329.114 181.645 331.25 177.874 331.25 177.874C331.25 177.874 331.509 175.891 332.676 175.063C333.842 174.234 333.58 168.228 333.58 168.228C333.58 168.228 333.905 165.099 334.681 163.825C335.458 162.55 333.987 160.816 333.987 160.816ZM275.74 158.154L275.799 159.601C275.454 159.045 275.205 158.648 275.205 158.648L275.74 158.154Z" fill="url(#paint1_linear)"/>
<path d="M326.38 186.87L325.635 190.048C325.635 190.048 319.664 186.991 318.59 183.123C317.517 179.255 320.388 177.781 320.388 177.781L325.956 180.136L326.38 186.87Z" fill="white"/>
<path opacity="0.1" d="M326.38 186.87L325.635 190.048C325.635 190.048 319.664 186.991 318.59 183.123C317.517 179.255 320.388 177.781 320.388 177.781L325.956 180.136L326.38 186.87Z" fill="black"/>
<path d="M292.87 295.006C292.87 295.006 287.347 297.036 283.551 297.292C281.535 297.427 280.475 296.19 279.93 294.999C279.634 294.342 279.441 293.643 279.357 292.927L279.858 287.453L280.12 284.541L288.186 282.442L289.328 285.94L289.436 286.203C289.891 287.373 291.734 292.119 291.679 293.11C291.675 293.366 291.722 293.621 291.819 293.858C291.915 294.096 292.059 294.311 292.242 294.491C292.428 294.689 292.639 294.862 292.87 295.006Z" fill="white"/>
<path d="M330.574 292.222C330.588 292.39 330.572 292.558 330.525 292.72C330.525 292.72 318.714 294.688 316.298 292.72C315.619 292.144 314.828 291.717 313.974 291.466C313.121 291.214 312.224 291.144 311.342 291.259C311.342 291.259 306.772 291.383 306.01 289.877C305.692 289.245 305.775 288.019 305.972 286.814C306.173 285.68 306.44 284.559 306.772 283.457L306.955 283.312L308.042 282.438L320.772 282.062H320.868C320.806 284.666 325.186 287.653 325.186 287.653C329.849 289.38 330.536 291.331 330.574 292.222Z" fill="white"/>
<path opacity="0.1" d="M330.577 292.222C330.589 292.39 330.572 292.558 330.525 292.72C330.525 292.72 318.714 294.688 316.302 292.72C315.622 292.144 314.83 291.717 313.976 291.465C313.122 291.214 312.225 291.143 311.342 291.259C311.342 291.259 306.769 291.383 306.006 289.877C305.692 289.245 305.771 288.019 305.968 286.81C307.728 286.987 310.507 287.425 311.597 288.475C313.247 290.064 316.043 291.652 317.755 291.78C319.108 291.863 327.153 292.119 330.577 292.222Z" fill="black"/>
<path opacity="0.1" d="M292.87 295.006C292.87 295.006 287.347 297.036 283.551 297.292C281.535 297.427 280.475 296.19 279.93 294.999C281.338 295.472 283.288 295.966 284.313 295.513C285.528 294.971 289.836 294.626 292.252 294.477C292.434 294.68 292.642 294.857 292.87 295.006Z" fill="black"/>
<path d="M301.064 131.344C296.508 129.572 290.647 123.718 292.11 120.983C292.434 120.292 292.627 119.547 292.68 118.786C292.774 117.753 292.788 116.714 292.721 115.678C292.619 113.981 292.415 112.291 292.11 110.619C292.11 110.619 306.334 110.94 305.506 113.036C305.264 113.654 305.223 114.721 305.292 115.913C305.361 117.104 305.53 118.462 305.709 119.605C305.954 121.169 306.206 122.368 306.206 122.368C306.206 122.368 305.333 123.587 304.826 123.652C304.318 123.718 307.601 133.882 301.064 131.344Z" fill="#CF6F80"/>
<path opacity="0.1" d="M289.422 286.185L289.315 286.303C285.062 281.157 279.92 287.574 279.92 287.574L279.844 287.435L280.106 284.524L288.172 282.424L289.315 285.923L289.422 286.185Z" fill="black"/>
<path opacity="0.1" d="M320.875 282.424C320.875 282.424 317.769 282.362 316.112 283.826C314.455 285.291 306.448 284.141 306.793 283.826C306.894 283.667 306.955 283.486 306.973 283.298L308.06 282.424L320.789 282.048C320.837 282.29 320.875 282.424 320.875 282.424Z" fill="black"/>
<path d="M294.713 242.014C294.482 242.586 294.306 243.18 294.188 243.786C293.9 245.445 293.82 247.134 293.95 248.814C294.078 251.231 293.95 267.432 293.95 267.432C293.95 267.432 291.22 271.753 289.694 273.276C288.169 274.799 292.801 277.534 292.801 277.534C293.491 281.475 289.308 285.923 289.308 285.923C285.056 280.777 279.913 287.19 279.913 287.19C279.913 287.19 277.117 282.355 276.42 280.628C275.723 278.902 279.15 277.71 280.355 277.006C281.559 276.301 280.292 272.171 280.292 272.171C280.292 272.171 279.278 268.548 278.07 265.243C276.862 261.938 279.402 245.488 279.402 245.488C279.402 245.488 279.533 242.563 279.847 241.544C280.004 240.809 280.036 240.052 279.94 239.306C279.92 239.054 279.896 238.847 279.878 238.702C279.861 238.557 279.847 238.495 279.847 238.495L279.896 238.412L281.621 235.193C281.621 235.193 295.541 239.987 294.713 242.014Z" fill="#65079E"/>
<path d="M320.875 282.044C320.875 282.044 317.769 281.979 316.112 283.426C314.455 284.873 306.448 283.744 306.793 283.426C307.138 283.108 307.107 280.76 307.107 280.76C302.41 274.339 306.417 271.735 306.417 271.735C306.417 271.735 304.322 261.634 303.942 257.887C303.676 255.272 303.348 248.217 303.172 244.221C303.097 242.494 303.052 241.302 303.052 241.302L306.855 240.546L307.349 240.449L316.606 238.588C316.606 238.588 316.861 240.315 317.034 241.727C317.121 242.33 317.168 242.938 317.175 243.547C317.116 244.238 317.175 246.403 317.175 246.403L317.493 252.882C317.288 253.562 317.181 254.268 317.175 254.979C317.241 255.807 318.445 267.622 318.445 267.622C318.445 267.622 320.54 274.674 319.826 275.182C319.111 275.69 320.875 282.044 320.875 282.044Z" fill="#65079E"/>
<path opacity="0.1" d="M305.506 113.046C305.264 113.665 305.223 114.732 305.292 115.923C303.386 117.071 301.196 117.658 298.973 117.617C296.749 117.575 294.582 116.907 292.721 115.688C292.618 113.991 292.415 112.302 292.11 110.629C292.11 110.629 306.334 110.95 305.506 113.046Z" fill="black"/>
<path d="M310.997 105.421C311.034 108.554 309.826 111.574 307.639 113.817C305.451 116.059 302.462 117.34 299.331 117.377C296.199 117.415 293.181 116.206 290.94 114.017C288.699 111.828 287.419 108.838 287.382 105.704C287.382 105.607 287.382 105.518 287.382 105.421C287.382 102.286 288.626 99.2805 290.841 97.0641C293.056 94.8478 296.06 93.6027 299.193 93.6027C302.325 93.6027 305.33 94.8478 307.545 97.0641C309.759 99.2805 311.004 102.286 311.004 105.421H310.997Z" fill="#CF6F80"/>
<path opacity="0.1" d="M301.064 131.344C296.508 129.572 290.647 123.718 292.11 120.983C292.434 120.292 292.627 119.547 292.68 118.786L298.917 123.918L302.775 127.085L305.709 119.615C305.954 121.18 306.206 122.378 306.206 122.378C306.206 122.378 305.333 123.597 304.826 123.663C304.318 123.728 307.601 133.882 301.064 131.344Z" fill="black"/>
<path d="M317.192 154.023L311.984 241.572L305.191 242.017L287.599 191.253L290.485 130.984L291.096 118.251L298.917 124.678L302.775 127.845L305.796 120.154L311.411 125.051L317.192 154.023Z" fill="#65079E"/>
<path opacity="0.1" d="M294.713 242.014C294.482 242.586 294.306 243.18 294.188 243.786C289.241 243.023 284.436 241.523 279.934 239.334L279.84 239.286L279.871 238.729V238.439L281.597 235.221C281.597 235.221 295.541 239.987 294.713 242.014Z" fill="black"/>
<path opacity="0.1" d="M306.969 243.799C305.706 244.015 304.431 244.162 303.152 244.238C303.076 242.511 303.031 241.32 303.031 241.32L306.855 240.546L306.969 243.799Z" fill="black"/>
<path opacity="0.1" d="M317.047 241.727C314.593 242.366 310.8 243.084 307.411 242.635L307.363 240.449L316.619 238.588C316.619 238.588 316.865 240.301 317.047 241.727Z" fill="black"/>
<path opacity="0.1" d="M307.349 243.036C293.198 245.454 280.237 238.522 280.237 238.522L280.362 236.174C280.362 236.174 280.683 209.55 279.792 207.509C278.902 205.468 278.208 195.131 278.712 193.553C279.216 191.975 276.872 168.145 276.872 168.145L276.492 158.475L262.586 152.821L268.799 139.86C269.638 138.043 270.36 136.174 270.96 134.265C272.04 130.898 277.055 127.593 277.055 127.593C277.055 127.593 282.198 124.291 284.231 124.416C286.264 124.54 288.928 121.494 288.928 121.494C290.895 116.476 292.676 118.731 292.676 118.731C292.676 118.973 292.676 118.731 292.58 119.474C291.89 124.982 303.742 142.388 303.911 142.699L305.054 170.21L306.196 205.026L307.349 243.036Z" fill="black"/>
<path d="M306.969 243.036C292.818 245.454 279.854 238.522 279.854 238.522L279.982 236.174C279.982 236.174 280.299 209.55 279.409 207.509C278.518 205.468 277.825 195.121 278.332 193.529C278.839 191.937 276.482 168.131 276.482 168.131L276.099 158.461L262.196 152.808L268.409 139.846C269.246 138.03 269.968 136.162 270.57 134.255C271.65 130.898 276.682 127.589 276.682 127.589C276.682 127.589 281.825 124.288 283.854 124.412C285.884 124.536 288.562 121.494 288.562 121.494C290.533 116.476 292.704 118.731 292.704 118.731C292.704 118.973 292.497 119.076 292.607 119.474C294.126 124.816 303.39 142.388 303.559 142.699L304.701 170.21L305.82 205.043L306.969 243.036Z" fill="white"/>
<path opacity="0.1" d="M303.155 143.476C301.633 142.841 293.57 133.63 293.57 133.63V131.533C293.277 130.843 291.531 131.264 290.119 131.748L290.726 119.014L291.417 119.587C292.925 124.927 302.99 143.169 303.155 143.476Z" fill="black"/>
<path d="M303.538 142.716C302.013 142.077 293.95 132.87 293.95 132.87V130.77C293.657 130.08 291.914 130.501 290.499 130.984L291.096 118.265L291.786 118.835C293.308 124.167 303.369 142.405 303.538 142.716Z" fill="white"/>
<path opacity="0.1" d="M280.237 188.649C280.427 188.649 290.077 187.634 290.077 187.634C290.077 187.634 295.921 199.134 295.538 201.928C295.155 204.722 294.461 207.202 292.11 206.763C289.76 206.324 279.461 207.108 279.461 207.108L280.237 188.649Z" fill="black"/>
<path d="M279.854 187.886C280.047 187.886 289.698 186.87 289.698 186.87C289.698 186.87 295.538 198.388 295.158 201.151C294.778 203.914 294.078 206.425 291.731 205.986C289.384 205.547 279.078 206.331 279.078 206.331L279.854 187.886Z" fill="white"/>
<path d="M287.126 182.502C287.126 182.502 295.983 187.267 296.173 188.718C296.363 190.168 291.665 188.083 290.65 187.827C289.982 187.668 289.302 187.562 288.618 187.509L281.849 187.692L287.126 182.502Z" fill="#CF6F80"/>
<path opacity="0.1" d="M300.68 144.07C301.195 144.07 301.612 143.653 301.612 143.138C301.612 142.623 301.195 142.205 300.68 142.205C300.166 142.205 299.749 142.623 299.749 143.138C299.749 143.653 300.166 144.07 300.68 144.07Z" fill="black"/>
<path d="M300.68 143.69C301.195 143.69 301.612 143.273 301.612 142.758C301.612 142.243 301.195 141.825 300.68 141.825C300.166 141.825 299.749 142.243 299.749 142.758C299.749 143.273 300.166 143.69 300.68 143.69Z" fill="#3F3D56"/>
<path opacity="0.1" d="M302.396 184.436C302.91 184.436 303.328 184.018 303.328 183.503C303.328 182.988 302.91 182.571 302.396 182.571C301.881 182.571 301.464 182.988 301.464 183.503C301.464 184.018 301.881 184.436 302.396 184.436Z" fill="black"/>
<path d="M302.396 184.052C302.91 184.052 303.328 183.635 303.328 183.12C303.328 182.605 302.91 182.187 302.396 182.187C301.881 182.187 301.464 182.605 301.464 183.12C301.464 183.635 301.881 184.052 302.396 184.052Z" fill="#3F3D56"/>
<path opacity="0.1" d="M301.612 164.253C302.127 164.253 302.544 163.835 302.544 163.32C302.544 162.805 302.127 162.388 301.612 162.388C301.098 162.388 300.68 162.805 300.68 163.32C300.68 163.835 301.098 164.253 301.612 164.253Z" fill="black"/>
<path d="M301.612 163.873C302.127 163.873 302.544 163.455 302.544 162.94C302.544 162.425 302.127 162.008 301.612 162.008C301.098 162.008 300.68 162.425 300.68 162.94C300.68 163.455 301.098 163.873 301.612 163.873Z" fill="#3F3D56"/>
<path d="M323.094 187.316C323.094 187.316 323.73 188.269 323.094 188.697C322.459 189.126 323.157 190.224 323.157 190.224C323.157 190.224 321.572 191.149 322.27 191.989C322.967 192.828 322.525 196.596 322.525 196.596L320.62 199.77C320.62 199.77 320.734 201.804 320.741 204.553C320.741 208.842 320.489 214.872 319.094 217.621L319.281 240.177C319.281 240.177 312.609 242.618 307.024 241.872L306.196 205.679C306.196 205.679 307.404 185.154 307.849 181.217C308.11 179.173 308.216 177.112 308.167 175.052C308.167 175.052 307.977 168.891 307.338 166.035C307.338 166.035 306.648 153.643 306.579 150.214C306.548 148.573 306.634 143.787 306.731 139.235C306.838 134.258 306.959 129.565 306.959 129.565L305.699 119.587C305.699 119.587 306.959 119.463 307.338 119.967C307.508 120.126 307.693 120.269 307.891 120.392C310.069 121.863 317.752 126.388 317.752 126.388C317.752 126.388 322.004 128.08 323.022 130.504C324.04 132.929 324.748 134.649 325.241 135.339C325.735 136.03 326.004 139.276 326.004 139.276C326.004 139.276 327.468 145.251 328.61 146.263C329.752 147.275 330.574 153.699 330.574 153.699L320.478 161.642C320.478 161.642 319.591 174.855 319.401 175.366C319.212 175.878 323.094 187.316 323.094 187.316Z" fill="white"/>
<path d="M323.478 187.316C323.478 187.316 324.109 188.269 323.478 188.697C322.846 189.126 323.536 190.224 323.536 190.224C323.536 190.224 321.952 191.149 322.649 191.989C323.346 192.828 322.905 196.596 322.905 196.596L321.006 199.77C321.006 199.77 321.12 201.804 321.131 204.553C321.131 208.842 320.879 214.872 319.484 217.621L319.674 240.177C319.674 240.177 313.002 242.618 307.418 241.872L306.593 205.679C306.593 205.679 307.797 185.154 308.246 181.217C308.507 179.173 308.612 177.112 308.56 175.052C308.56 175.052 308.37 168.891 307.735 166.035C307.735 166.035 307.045 153.643 306.973 150.214C306.942 148.573 307.028 143.787 307.124 139.235C307.231 134.258 307.352 129.565 307.352 129.565L305.689 119.453C305.689 119.453 307.352 119.453 307.735 119.967C307.904 120.128 308.089 120.271 308.288 120.392C310.462 121.863 318.145 126.388 318.145 126.388C318.145 126.388 322.387 128.08 323.422 130.504C324.458 132.929 325.148 134.649 325.642 135.339C326.135 136.03 326.404 139.276 326.404 139.276C326.404 139.276 327.868 145.251 329.01 146.263C330.153 147.275 330.978 153.699 330.978 153.699L320.882 161.642C320.882 161.642 319.995 174.855 319.802 175.366C319.608 175.878 323.478 187.316 323.478 187.316Z" fill="white"/>
<path opacity="0.1" d="M311.387 132.497L312.302 135.156L307.501 139.991C307.608 135.015 307.728 130.321 307.728 130.321L306.065 120.213C306.065 120.213 307.728 120.213 308.111 120.727C308.28 120.888 308.465 121.03 308.664 121.152L312.743 132.925L311.387 132.497Z" fill="black"/>
<path d="M310.997 131.734L311.912 134.39L307.114 139.225C307.218 134.248 307.342 129.555 307.342 129.555L305.675 119.442C305.675 119.442 307.342 119.442 307.722 119.957C307.891 120.117 308.076 120.259 308.274 120.382L312.378 132.165L310.997 131.734Z" fill="white"/>
<path opacity="0.1" d="M310.997 105.421C310.998 106.665 310.803 107.902 310.417 109.085C310.352 109.096 310.286 109.094 310.222 109.078C310.158 109.063 310.097 109.035 310.044 108.995C309.951 105.887 308.426 102.965 306.545 100.482C306.015 99.7333 305.375 99.0694 304.646 98.5137C303.908 97.9594 302.99 97.6996 302.071 97.785C301.036 97.9266 300.121 98.6311 299.076 98.7209C297.695 98.8349 296.459 97.8782 295.089 97.8333C294.532 97.838 293.982 97.9618 293.477 98.1965C292.971 98.4311 292.522 98.7713 292.159 99.194C291.438 100.044 290.903 101.036 290.588 102.105C290.046 103.728 289.75 105.423 289.712 107.134C289.694 108.101 289.601 109.313 288.704 109.665C288.772 108.955 288.691 108.238 288.467 107.56C288.243 106.882 287.881 106.258 287.403 105.728L287.382 105.704C287.382 105.607 287.382 105.518 287.382 105.421C287.382 102.286 288.626 99.2805 290.841 97.0641C293.056 94.8478 296.06 93.6027 299.193 93.6027C302.325 93.6027 305.33 94.8478 307.545 97.0641C309.759 99.2805 311.004 102.286 311.004 105.421H310.997Z" fill="black"/>
<path d="M304.094 86.6575C302.3 85.8133 300.26 85.6537 298.358 86.2086C297.402 86.4917 296.501 86.9511 295.531 87.1825C293.46 87.6832 291.044 87.141 289.266 88.3532C288.279 89.044 287.686 90.1353 287.133 91.199L285.753 93.8272C285 95.2673 284.241 96.7316 283.927 98.3168C283.613 99.902 283.803 101.677 284.807 102.955C285.535 103.881 286.619 104.464 287.413 105.338C287.89 105.871 288.251 106.496 288.475 107.176C288.698 107.855 288.778 108.573 288.711 109.285C289.608 108.94 289.698 107.721 289.718 106.754C289.757 105.043 290.053 103.348 290.595 101.726C290.91 100.656 291.445 99.6645 292.166 98.8142C292.529 98.3909 292.978 98.0503 293.483 97.815C293.989 97.5797 294.539 97.4553 295.096 97.45C296.477 97.4983 297.716 98.455 299.082 98.3376C300.118 98.2512 301.036 97.5467 302.078 97.4051C302.997 97.3181 303.916 97.578 304.653 98.1338C305.383 98.6878 306.022 99.3519 306.548 100.102C308.432 102.589 309.962 105.497 310.051 108.615C310.441 108.899 311.004 108.526 311.197 108.084C311.39 107.642 311.397 107.123 311.642 106.702C311.925 106.215 312.467 105.953 312.892 105.587C313.969 104.658 314.238 103.093 314.196 101.674C314.155 100.254 313.879 98.8142 314.148 97.4189C314.31 96.5659 314.676 95.7612 314.876 94.9151C315.077 94.0689 315.101 93.1192 314.628 92.3905C313.938 91.3233 312.485 91.1092 311.218 91.009C309.779 90.8847 308.491 91.0436 307.573 89.8314C307.141 89.1996 306.656 88.6057 306.123 88.0562C305.934 87.8732 304.094 86.7335 304.094 86.6575Z" fill="#512E4E"/>
<path opacity="0.1" d="M266.569 159.487L262.966 152.818L261.823 163.11C261.823 163.11 262.459 167.682 262.331 168.383C262.203 169.084 264.933 175.37 264.933 175.37C264.933 175.37 273.952 191.446 277.635 192.272L290.06 183.375L286.761 179.183C286.761 179.183 285.618 178.737 285.332 179.183C285.332 179.183 279.202 168.635 278.57 167.876C277.938 167.116 278.059 165.586 278.059 165.586C278.059 165.586 277.107 164.571 277.424 163.617C277.742 162.664 275.602 159.363 275.602 159.363L277.569 157.522L266.569 159.487Z" fill="black"/>
<path d="M263.156 152.055L262.203 152.818L261.061 163.11C261.061 163.11 261.696 167.682 261.568 168.383C261.44 169.084 264.174 175.37 264.174 175.37C264.174 175.37 273.189 191.446 276.872 192.272L289.318 183.375L286.015 179.183C286.015 179.183 284.873 178.737 284.586 179.183C284.586 179.183 278.46 168.635 277.825 167.876C277.19 167.116 277.317 165.586 277.317 165.586C277.317 165.586 276.365 164.571 276.682 163.617C277 162.664 274.839 159.363 274.839 159.363L276.806 157.522L263.156 152.055Z" fill="white"/>
<path opacity="0.1" d="M322.269 192.386C322.96 193.225 322.525 196.996 322.525 196.996L320.62 200.149C320.62 200.149 320.734 202.187 320.74 204.936L317.537 205.938C317.248 206.028 316.94 206.048 316.641 205.995C316.342 205.943 316.06 205.819 315.818 205.636C315.576 205.452 315.382 205.213 315.251 204.938C315.12 204.664 315.057 204.363 315.066 204.059L315.622 186.238L323.094 189.094C322.459 189.537 323.157 190.621 323.157 190.621C323.157 190.621 321.572 191.547 322.269 192.386Z" fill="black"/>
<path d="M322.649 192.006C323.339 192.842 322.905 196.613 322.905 196.613L321.006 199.77C321.006 199.77 321.12 201.804 321.13 204.553L317.869 205.572C317.586 205.66 317.285 205.68 316.993 205.629C316.7 205.578 316.424 205.458 316.188 205.278C315.951 205.099 315.761 204.865 315.633 204.597C315.506 204.329 315.444 204.035 315.453 203.738L316.009 185.855L323.478 188.718C322.839 189.16 323.536 190.245 323.536 190.245C323.536 190.245 321.952 191.167 322.649 192.006Z" fill="white"/>
<path d="M325.127 183.503C325.127 183.503 324.62 186.746 323.35 186.936C322.08 187.126 321.51 192.182 320.244 192.006C318.977 191.83 319.816 187.302 319.86 186.425C319.905 185.548 318.48 181.914 319.543 181.089C320.606 180.264 323.988 181.089 323.988 181.089L325.127 183.503Z" fill="#CF6F80"/>
<path opacity="0.1" d="M327.813 158.534L330.205 153.699C330.205 153.699 331.161 157.384 331.161 159.352C331.161 161.321 332.493 161.514 332.493 161.514C332.493 161.514 333.953 163.241 333.183 164.501C332.414 165.762 332.106 168.884 332.106 168.884C332.106 168.884 332.358 174.855 331.216 175.681C330.073 176.506 329.818 178.478 329.818 178.478C329.818 178.478 327.723 182.225 327.788 183.116C327.854 184.007 324.868 190.041 324.868 190.041C324.868 190.041 326.328 182.543 317.821 179.304C317.821 179.304 317.755 176.762 318.39 176.064C319.025 175.366 320.016 175.028 319.394 171.519C318.773 168.01 319.215 163.78 319.215 162.934C319.215 162.087 321.12 156.814 321.12 156.814L327.813 158.534Z" fill="black"/>
<path d="M328.876 153.008L330.967 153.699C330.967 153.699 331.923 157.384 331.923 159.352C331.923 161.321 333.256 161.514 333.256 161.514C333.256 161.514 334.716 163.241 333.946 164.501C333.176 165.762 332.866 168.884 332.866 168.884C332.866 168.884 333.121 174.855 331.979 175.681C330.836 176.506 330.598 178.478 330.598 178.478C330.598 178.478 328.503 182.225 328.568 183.116C328.634 184.007 325.645 190.041 325.645 190.041C325.645 190.041 327.105 182.543 318.597 179.304C318.597 179.304 318.535 176.762 319.17 176.064C319.805 175.366 320.796 175.028 320.174 171.519C319.553 168.01 319.995 163.78 319.995 162.934C319.995 162.087 321.9 156.814 321.9 156.814L328.876 153.008Z" fill="white"/>
<path opacity="0.1" d="M282.667 278.328C282.667 278.328 286.001 276.232 288.189 277.755C290.378 279.278 282.667 278.328 282.667 278.328Z" fill="black"/>
<path opacity="0.1" d="M308.581 271.846C308.581 271.846 311.532 271.466 314.01 274.136C316.488 276.805 308.581 271.846 308.581 271.846Z" fill="black"/>
<g opacity="0.1">
<path opacity="0.1" d="M312.892 104.827C312.467 105.196 311.922 105.455 311.639 105.942C311.397 106.36 311.39 106.878 311.197 107.324C311.004 107.769 310.441 108.139 310.048 107.856C309.958 104.747 308.429 101.829 306.548 99.3426C306.022 98.5932 305.383 97.9302 304.653 97.3775C303.915 96.8205 302.995 96.5594 302.075 96.6453C301.039 96.7869 300.128 97.4914 299.082 97.5812C297.702 97.6952 296.463 96.7386 295.093 96.6937C294.536 96.6979 293.986 96.8215 293.482 97.0563C292.977 97.291 292.528 97.6314 292.166 98.0544C291.445 98.9047 290.91 99.8964 290.595 100.966C290.053 102.588 289.757 104.284 289.719 105.994C289.698 106.958 289.608 108.16 288.718 108.519C288.738 108.775 288.738 109.033 288.718 109.289C289.618 108.944 289.708 107.724 289.729 106.757C289.768 105.047 290.063 103.352 290.606 101.729C290.921 100.66 291.456 99.668 292.176 98.8176C292.539 98.3947 292.987 98.0541 293.492 97.8188C293.997 97.5836 294.546 97.459 295.103 97.4534C296.484 97.5018 297.726 98.4584 299.093 98.341C300.128 98.2547 301.046 97.5501 302.085 97.4085C303.005 97.3217 303.925 97.5815 304.664 98.1373C305.393 98.6913 306.032 99.3554 306.558 100.106C308.439 102.592 309.968 105.5 310.058 108.619C310.452 108.902 311.014 108.529 311.208 108.087C311.401 107.645 311.408 107.127 311.649 106.706C311.932 106.219 312.478 105.956 312.902 105.59C313.979 104.661 314.248 103.097 314.207 101.677C314.207 101.632 314.207 101.591 314.207 101.546C314.138 102.782 313.81 104.036 312.892 104.827Z" fill="black"/>
<path opacity="0.1" d="M287.409 104.585C286.619 103.711 285.535 103.124 284.807 102.199C284.192 101.382 283.842 100.396 283.803 99.3736C283.694 100.652 284.051 101.926 284.807 102.962C285.535 103.887 286.619 104.471 287.409 105.345C288.173 106.199 288.632 107.282 288.714 108.425C288.766 107.73 288.677 107.032 288.453 106.372C288.229 105.712 287.874 105.104 287.409 104.585Z" fill="black"/>
<path opacity="0.1" d="M314.876 94.1552C314.673 95.0014 314.31 95.8061 314.145 96.6591C314.045 97.2359 314.009 97.822 314.038 98.4066C314.049 98.0763 314.085 97.7474 314.145 97.4223C314.31 96.5693 314.673 95.7646 314.876 94.9185C314.993 94.4515 315.032 93.9683 314.99 93.4887C314.968 93.7133 314.93 93.936 314.876 94.1552Z" fill="black"/>
</g>
<path opacity="0.1" d="M45.8117 289.715C64.3858 289.715 79.443 287.295 79.443 284.31C79.443 281.325 64.3858 278.905 45.8117 278.905C27.2376 278.905 12.1803 281.325 12.1803 284.31C12.1803 287.295 27.2376 289.715 45.8117 289.715Z" fill="#65079E"/>
<path d="M46.8954 180.768H44.7313V229.522H46.8954V180.768Z" fill="#535461"/>
<path d="M60.4978 229.377L60.3597 231.574L60.1699 234.682L60.0905 235.974L59.8972 239.082L59.8144 240.373L59.6246 243.482L57.4398 278.732C57.3466 280.249 56.6788 281.673 55.5724 282.714C54.4661 283.755 53.0046 284.334 51.4859 284.334H40.1409C38.6181 284.335 37.1528 283.752 36.0456 282.706C34.9385 281.66 34.2735 280.23 34.187 278.708L32.0022 243.457L31.8124 240.349L31.733 239.058L31.5363 235.949L31.4569 234.658L31.2671 231.549L31.129 229.353C31.1051 228.932 31.1671 228.51 31.3112 228.114C31.4553 227.718 31.6784 227.355 31.9671 227.048C32.2557 226.741 32.6038 226.495 32.9902 226.327C33.3766 226.159 33.7932 226.071 34.2147 226.069H57.4156C57.8389 226.071 58.2572 226.16 58.6449 226.33C59.0326 226.5 59.3815 226.748 59.6701 227.057C59.9588 227.367 60.1811 227.733 60.3234 228.132C60.4657 228.531 60.5251 228.954 60.4978 229.377Z" fill="#3F3D56"/>
<path d="M60.3598 231.57L60.1665 234.672H31.457L31.2637 231.57H60.3598Z" fill="#9D9CB5"/>
<path d="M60.087 235.963L59.8972 239.064H31.7295L31.5363 235.963H60.087Z" fill="#9D9CB5"/>
<path d="M59.8144 240.36L59.6246 243.457H32.0022L31.809 240.36H59.8144Z" fill="#9D9CB5"/>
<path d="M27.9743 199.044C40.5792 208.169 45.8289 222.439 45.8289 222.439C45.8289 222.439 30.6423 221.917 18.034 212.793C5.42569 203.669 0.169067 189.409 0.169067 189.409C0.169067 189.409 15.3556 189.92 27.9743 199.044Z" fill="#65079E"/>
<path d="M0.169067 189.409C0.169067 189.409 15.932 198.164 20.9885 205.413C26.0449 212.662 45.8151 222.446 45.8151 222.446" stroke="#535461" stroke-width="2" stroke-miterlimit="10"/>
<path d="M36.0957 180.664C42.9572 185.627 45.8151 193.394 45.8151 193.394C45.8151 193.394 37.5315 193.111 30.6872 188.148C23.8429 183.185 20.9678 175.415 20.9678 175.415C20.9678 175.415 29.2376 175.698 36.0957 180.664Z" fill="#65079E"/>
<path d="M20.9678 175.415C20.9678 175.415 29.5482 180.181 32.3025 184.125C35.0568 188.069 45.8151 193.394 45.8151 193.394" stroke="#535461" stroke-width="2" stroke-miterlimit="10"/>
<path d="M55.783 193.001C47.9033 201.666 46.2362 212.99 46.2362 212.99C46.2362 212.99 57.3466 210.262 65.2194 201.593C73.0923 192.925 74.7663 181.604 74.7663 181.604C74.7663 181.604 63.6628 184.335 55.783 193.001Z" fill="#65079E"/>
<path d="M74.7732 181.607C74.7732 181.607 64.5084 190.49 61.8991 196.609C59.2898 202.729 46.2362 212.99 46.2362 212.99" stroke="#535461" stroke-width="2" stroke-miterlimit="10"/>
<defs>
<linearGradient id="paint0_linear" x1="160.677" y1="288.568" x2="160.677" y2="89.0716" gradientUnits="userSpaceOnUse">
<stop stop-color="#808080" stop-opacity="0.25"/>
<stop offset="0.54" stop-color="#808080" stop-opacity="0.12"/>
<stop offset="1" stop-color="#808080" stop-opacity="0.1"/>
</linearGradient>
<linearGradient id="paint1_linear" x1="65674.8" y1="186961" x2="65674.8" y2="56200" gradientUnits="userSpaceOnUse">
<stop stop-color="#808080" stop-opacity="0.25"/>
<stop offset="0.54" stop-color="#808080" stop-opacity="0.12"/>
<stop offset="1" stop-color="#808080" stop-opacity="0.1"/>
</linearGradient>
</defs>
</svg>
