<svg width="274" height="274" viewBox="0 0 274 274" fill="none" xmlns="http://www.w3.org/2000/svg">
<circle cx="137" cy="137" r="137" fill="#F8EDFF"/>
<circle cx="137" cy="137" r="112" fill="#EED1FF"/>
<circle cx="136.5" cy="136.5" r="93.5" fill="#65079E"/>
<path d="M127.52 112.649L129.904 118.269C130.941 120.717 130.367 123.598 128.479 125.389L123.228 130.374C123.549 133.357 124.553 136.293 126.233 139.182C127.829 141.978 129.97 144.424 132.53 146.377L138.837 144.273C141.23 143.477 143.833 144.392 145.297 146.546L148.716 151.565C150.421 154.071 150.116 157.526 148.001 159.652L145.733 161.926C143.476 164.194 140.251 165.014 137.271 164.086C130.231 161.89 123.76 155.369 117.854 144.528C111.94 133.67 109.853 124.457 111.594 116.891C112.326 113.708 114.591 111.171 117.552 110.225L120.535 109.272C123.336 108.379 126.322 109.823 127.522 112.649H127.52ZM149.093 109.017L149.376 109C149.879 108.999 150.365 109.181 150.744 109.511C151.123 109.842 151.37 110.298 151.439 110.797L151.455 111.079V120.101H160.472C160.975 120.102 161.46 120.284 161.839 120.615C162.218 120.946 162.464 121.402 162.532 121.901L162.551 122.184C162.551 122.686 162.369 123.172 162.039 123.55C161.708 123.929 161.252 124.175 160.754 124.244L160.472 124.263H151.455V133.268C151.455 133.771 151.273 134.256 150.943 134.635C150.613 135.014 150.156 135.26 149.659 135.328L149.376 135.348C148.873 135.348 148.388 135.166 148.009 134.836C147.63 134.505 147.384 134.049 147.316 133.551L147.296 133.268V124.26H138.283C137.78 124.261 137.294 124.079 136.914 123.749C136.535 123.419 136.288 122.962 136.22 122.464L136.203 122.184C136.203 121.681 136.385 121.196 136.716 120.817C137.046 120.438 137.502 120.192 138 120.124L138.283 120.104H147.294L147.296 111.079C147.296 110.577 147.478 110.091 147.809 109.713C148.139 109.334 148.595 109.088 149.093 109.019L149.376 109L149.093 109.019V109.017Z" fill="white"/>
</svg>
