<svg width="258" height="193" viewBox="0 0 258 193" fill="none" xmlns="http://www.w3.org/2000/svg">
<path d="M26.5578 156.957C54.9701 156.957 83.3662 156.957 111.778 156.957C140.046 156.957 168.313 156.957 196.564 156.957C212.511 156.957 228.443 156.957 244.39 156.957C244.697 156.957 244.697 156.475 244.39 156.475C215.978 156.475 187.582 156.475 159.17 156.475C130.903 156.475 102.636 156.475 74.3846 156.475C58.437 156.475 42.5055 156.475 26.5578 156.475C26.2515 156.475 26.2515 156.957 26.5578 156.957Z" fill="#E8E8E8"/>
<path d="M86.688 156.282C85.0432 155.526 83.6404 154.32 82.7051 152.76C82.2698 152.036 81.8989 151.216 81.7054 150.395C81.528 149.575 81.8505 148.739 82.818 148.867C83.4469 148.948 83.9468 149.366 84.3983 149.752C84.495 149.623 84.5918 149.495 84.6885 149.366C83.6404 148.69 82.818 147.758 82.3181 146.616C81.9795 145.828 81.1894 143.335 82.5439 143.093C82.7051 143.061 82.7535 142.868 82.689 142.74C81.399 140.086 81.0926 137.127 80.8185 134.232C80.6895 132.848 80.5605 131.176 81.6409 130.114C82.9147 128.828 84.6724 129.728 85.7366 130.822C87.72 132.864 88.752 135.776 89.8001 138.365C90.8966 141.083 91.848 143.849 92.5414 146.68C93.3315 149.961 93.7508 153.322 93.5734 156.684C93.5573 156.989 94.041 156.989 94.0571 156.684C94.4119 149.8 92.3318 143.126 89.7034 136.853C88.623 134.28 87.3975 130.967 84.8498 129.487C83.8661 128.924 82.6729 128.763 81.7054 129.439C80.7217 130.13 80.3509 131.353 80.2864 132.495C80.2057 134.248 80.5121 136.097 80.7862 137.818C81.0604 139.603 81.5119 141.356 82.302 142.981C82.3504 142.868 82.3987 142.74 82.4471 142.627C81.0281 142.884 81.3184 144.927 81.5925 145.908C82.0279 147.516 83.076 148.883 84.4789 149.784C84.7046 149.929 84.9788 149.575 84.7691 149.398C83.9951 148.755 83.0115 148.031 81.9634 148.497C80.8507 148.996 81.1571 150.283 81.4796 151.199C82.3181 153.628 84.1564 155.622 86.4784 156.684C86.7202 156.829 86.9782 156.41 86.688 156.282Z" fill="#E8E8E8"/>
<path d="M91.8319 142.289C91.3159 138.445 91.4771 134.682 92.6865 130.983C93.267 129.197 93.8798 127.428 94.4764 125.659C94.9601 124.228 95.8148 121.574 97.8626 122.812C99.33 123.697 99.6041 126.045 99.9428 127.573C100.362 129.439 100.652 131.32 100.83 133.234C101.168 136.837 101.12 140.488 100.733 144.091C100.281 148.337 99.3945 152.534 98.1851 156.62C98.1045 156.925 98.556 157.038 98.6528 156.748C100.991 148.819 102.168 140.44 101.2 132.205C100.975 130.211 100.62 128.232 100.136 126.302C99.7654 124.855 99.3784 123.038 97.911 122.298C96.7016 121.703 95.5406 122.282 94.8956 123.375C94.5248 124.003 94.3151 124.726 94.0733 125.402C93.7185 126.463 93.3638 127.509 93.009 128.57C92.2995 130.693 91.5416 132.784 91.2514 135.02C90.945 137.432 91.0418 139.877 91.3643 142.289C91.3804 142.595 91.8641 142.595 91.8319 142.289Z" fill="#E8E8E8"/>
<path d="M82.1407 129.809C86.7848 138.059 90.4451 147.034 91.2836 156.555C91.3159 156.861 91.7996 156.861 91.7674 156.555C90.9128 146.953 87.2524 137.915 82.56 129.567C82.4149 129.294 81.9956 129.535 82.1407 129.809Z" fill="#E8E8E8"/>
<path d="M96.9435 122.587C97.3305 125.402 97.1853 128.248 97.0725 131.079C96.9596 133.862 96.8467 136.644 96.7338 139.442C96.5081 145.104 96.363 150.813 95.3148 156.394C95.2665 156.7 95.718 156.829 95.7825 156.523C96.8306 150.894 96.9918 145.152 97.2176 139.442C97.3305 136.547 97.4595 133.652 97.5723 130.774C97.6852 128.007 97.7981 125.225 97.4111 122.475C97.3788 122.153 96.9112 122.298 96.9435 122.587Z" fill="#E8E8E8"/>
<path d="M92.3156 130.709C94.3635 133.459 95.8309 136.58 96.6049 139.909C96.6694 140.214 97.137 140.086 97.0725 139.78C96.2824 136.403 94.815 133.234 92.7349 130.452C92.5575 130.211 92.1382 130.452 92.3156 130.709Z" fill="#E8E8E8"/>
<path d="M100.007 127.364C98.7011 129.728 97.6691 132.221 96.9112 134.827C96.8306 135.132 97.2982 135.261 97.3789 134.955C98.1206 132.398 99.1526 129.937 100.426 127.605C100.572 127.348 100.152 127.09 100.007 127.364Z" fill="#E8E8E8"/>
<path d="M82.4955 143.045C85.8979 144.428 88.7197 146.953 90.5096 150.154C90.6547 150.427 91.074 150.186 90.9289 149.913C89.0745 146.6 86.1397 144.026 82.6245 142.595C82.3342 142.45 82.2214 142.917 82.4955 143.045Z" fill="#E8E8E8"/>
<path d="M87.0427 132.189C86.7524 134.939 86.8814 137.689 87.3975 140.408C87.462 140.713 87.9296 140.584 87.8651 140.279C87.3652 137.609 87.2523 134.891 87.5265 132.189C87.5587 131.883 87.0749 131.883 87.0427 132.189Z" fill="#E8E8E8"/>
<path d="M29.5249 156.378C29.154 155.301 28.8799 154.175 28.7509 153.033C28.7025 152.55 28.6702 152.068 28.6702 151.569C28.6702 151.312 28.6219 150.942 28.6864 150.701C28.6864 150.604 28.7025 150.508 28.7025 150.411C29.0089 150.186 29.2669 150.218 29.4765 150.492C29.6216 150.62 29.9119 150.54 29.8957 150.315C29.8474 149.655 29.8474 148.996 29.928 148.337C29.9764 148.015 30.0247 147.693 30.1054 147.388C30.1376 147.275 30.5246 146.181 30.5569 146.23C30.6697 146.39 30.9439 146.39 30.9922 146.165C31.6856 143.319 32.9272 140.665 34.443 138.172C34.83 137.529 35.2492 136.885 35.6685 136.258C36.1361 135.566 36.9101 134.473 37.6196 135.679C38.3452 136.901 38.5549 138.687 38.6194 140.086C38.7806 143.045 38.1034 145.988 37.152 148.771C36.2329 151.489 35.088 154.207 33.1207 156.346C32.9111 156.571 33.2497 156.909 33.4594 156.684C35.1686 154.834 36.249 152.566 37.1359 150.234C38.0711 147.741 38.829 145.152 39.0547 142.498C39.1676 141.212 39.1515 139.909 38.958 138.622C38.7967 137.512 38.5549 136.097 37.8615 135.164C36.4264 133.266 34.7655 136.724 34.1689 137.689C32.5564 140.295 31.2502 143.061 30.5246 146.037C30.6697 146.021 30.8149 146.004 30.96 145.972C30.5569 145.442 30.057 145.972 29.8796 146.423C29.3797 147.629 29.283 149.028 29.3959 150.299C29.541 150.234 29.67 150.186 29.8151 150.122C29.5087 149.848 29.0089 149.495 28.5735 149.704C28.122 149.929 28.1865 150.54 28.1865 150.958C28.1381 152.84 28.4445 154.689 29.0572 156.475C29.154 156.796 29.6216 156.668 29.5249 156.378Z" fill="#E8E8E8"/>
<path d="M36.9746 135.132C36.4264 138.928 35.5072 142.659 34.2011 146.262C32.9918 149.639 30.96 152.904 30.5085 156.507C30.4763 156.812 30.96 156.812 30.9923 156.507C31.2341 154.593 31.9759 152.824 32.7499 151.087C33.4755 149.446 34.1689 147.79 34.7655 146.101C36.0071 142.579 36.894 138.944 37.4261 135.245C37.4745 134.955 37.0069 134.827 36.9746 135.132Z" fill="#E8E8E8"/>
<path d="M32.5241 140.874C32.7015 143.431 32.9595 145.972 33.2981 148.514C33.3465 148.819 33.7979 148.69 33.7657 148.385C33.4271 145.892 33.1691 143.383 33.0078 140.874C32.9917 140.568 32.508 140.552 32.5241 140.874Z" fill="#E8E8E8"/>
<path d="M35.5395 143.753C36.8295 142.482 37.9421 141.051 38.8774 139.507C39.0386 139.233 38.6194 138.992 38.4581 139.266C37.539 140.777 36.4586 142.161 35.2009 143.415C34.9751 143.624 35.3137 143.962 35.5395 143.753Z" fill="#E8E8E8"/>
<path d="M27.735 156.137C26.6224 154.545 25.6871 152.84 24.9776 151.023C24.6551 150.202 24.381 149.35 24.1552 148.497C24.0424 148.047 23.9295 147.597 23.8327 147.13C23.7682 146.857 23.349 145.072 23.9295 145.184C24.123 145.216 24.2681 145.072 24.2197 144.895C23.8166 142.675 23.5586 140.44 23.478 138.188C23.4457 137.159 23.4296 136.097 23.6554 135.1C23.7682 134.618 23.9295 134.055 24.252 133.653C24.9937 132.752 25.7677 133.492 26.2515 134.167C28.5735 137.416 30.057 141.324 30.7665 145.233C30.8149 145.538 31.2825 145.409 31.2341 145.104C30.7826 142.675 30.0409 140.327 29.025 138.092C28.4929 136.934 27.8962 135.824 27.219 134.762C26.7675 134.055 26.187 132.945 25.2679 132.752C23.2522 132.334 22.9942 135.84 22.9781 137.078C22.9459 139.748 23.2684 142.434 23.7521 145.056C23.8489 144.959 23.9456 144.863 24.0424 144.766C22.1074 144.428 23.7037 148.851 23.9456 149.607C24.7035 152.036 25.8484 154.336 27.2996 156.427C27.4931 156.636 27.9124 156.394 27.735 156.137Z" fill="#E8E8E8"/>
<path d="M24.5584 133.25C26.3644 138.831 27.8963 144.509 29.154 150.234C29.2185 150.54 29.6861 150.411 29.6216 150.106C28.3639 144.38 26.832 138.703 25.026 133.122C24.9293 132.832 24.4616 132.961 24.5584 133.25Z" fill="#E8E8E8"/>
<path d="M23.3812 140.713C25.3001 141.533 26.8642 142.933 27.864 144.75C28.0091 145.023 28.4283 144.782 28.2832 144.509C27.2351 142.611 25.6226 141.147 23.6231 140.295C23.3328 140.182 23.091 140.6 23.3812 140.713Z" fill="#E8E8E8"/>
<path d="M27.8801 136.612C27.4609 138.204 27.2029 139.812 27.1061 141.453C27.09 141.758 27.5737 141.758 27.5899 141.453C27.6705 139.861 27.9285 138.284 28.3477 136.74C28.4284 136.435 27.9607 136.306 27.8801 136.612Z" fill="#E8E8E8"/>
<path d="M223.025 156.716C221.751 153.628 221.38 150.267 222.025 146.986C221.945 147.05 221.864 147.098 221.799 147.162C222.17 147.098 222.444 147.259 222.638 147.661C222.719 147.886 223.138 147.886 223.106 147.597C222.96 146.181 222.96 144.75 223.138 143.335C223.235 142.627 223.364 141.935 223.541 141.244C223.622 140.922 223.718 140.6 223.815 140.279C223.88 140.102 223.928 139.909 223.992 139.732C224.105 139.475 224.17 139.201 224.17 138.912C224.299 138.992 224.444 139.073 224.573 139.153C225.121 136.21 226.556 133.556 228.685 131.465C228.572 131.465 228.459 131.465 228.346 131.465C229.088 132.253 229.12 133.379 229.233 134.392C229.346 135.454 229.427 136.515 229.475 137.577C229.588 139.652 229.588 141.742 229.475 143.817C229.265 148.111 228.604 152.357 227.508 156.507C227.427 156.812 227.895 156.941 227.975 156.636C229.12 152.245 229.797 147.741 229.975 143.206C230.072 140.922 230.023 138.638 229.862 136.371C229.749 134.746 229.878 132.414 228.669 131.127C228.572 131.031 228.411 131.031 228.33 131.127C226.137 133.266 224.654 136.017 224.089 139.024C224.041 139.25 224.315 139.443 224.492 139.266C224.525 139.233 224.541 139.217 224.573 139.185C224.637 139.121 224.67 139.04 224.637 138.944C224.508 138.574 224.17 138.461 223.88 138.767C223.67 138.976 223.589 139.346 223.493 139.619C223.299 140.166 223.138 140.713 222.993 141.276C222.477 143.351 222.348 145.49 222.573 147.613C222.735 147.597 222.896 147.565 223.041 147.548C222.815 146.986 222.364 146.648 221.735 146.696C221.638 146.696 221.525 146.76 221.509 146.873C220.864 150.234 221.203 153.692 222.509 156.861C222.686 157.118 223.154 157.005 223.025 156.716Z" fill="#E8E8E8"/>
<path d="M230.217 143.737C230.636 140.874 231.781 138.14 233.587 135.856C234.022 135.309 234.474 134.811 234.973 134.328C235.296 134.022 236.022 133.154 236.522 133.878C236.715 134.151 236.699 134.601 236.699 134.923C236.683 136.483 236.473 138.075 236.231 139.636C235.312 145.667 233.151 151.473 229.91 156.652C229.749 156.909 230.168 157.166 230.33 156.893C233.28 152.148 235.344 146.905 236.409 141.421C236.667 140.102 236.86 138.783 236.989 137.448C237.102 136.371 237.441 134.907 237.037 133.862C236.183 131.61 233.651 134.987 233.039 135.776C231.281 138.059 230.152 140.761 229.749 143.608C229.717 143.914 230.184 144.042 230.217 143.737Z" fill="#E8E8E8"/>
<path d="M229.943 142.531C229.749 145.249 229.378 147.935 228.83 150.604C228.765 150.91 229.233 151.039 229.298 150.733C229.862 148.031 230.233 145.297 230.426 142.531C230.442 142.225 229.959 142.225 229.943 142.531Z" fill="#E8E8E8"/>
<path d="M236.167 133.459C233.425 141.131 230.781 148.819 228.217 156.555C228.12 156.845 228.588 156.973 228.685 156.684C231.232 148.948 233.877 141.26 236.634 133.588C236.731 133.299 236.263 133.17 236.167 133.459Z" fill="#E8E8E8"/>
<path d="M228.266 131.658C227.008 140.021 225.734 148.369 224.476 156.732C224.428 157.038 224.895 157.166 224.944 156.861C226.202 148.497 227.475 140.15 228.733 131.787C228.782 131.481 228.314 131.336 228.266 131.658Z" fill="#E8E8E8"/>
<path d="M224.041 138.815C224.573 142.064 225.105 145.297 225.637 148.546C225.685 148.851 226.153 148.723 226.105 148.417C225.573 145.168 225.04 141.935 224.508 138.687C224.46 138.381 223.992 138.51 224.041 138.815Z" fill="#E8E8E8"/>
<path d="M229.475 136.338C228.395 138.172 227.475 140.086 226.718 142.08C226.605 142.37 227.072 142.498 227.185 142.209C227.927 140.263 228.83 138.381 229.894 136.596C230.055 136.306 229.636 136.065 229.475 136.338Z" fill="#E8E8E8"/>
<path d="M231.507 138.236C231.507 141.003 231.507 143.785 231.507 146.551C231.507 146.857 231.99 146.857 231.99 146.551C231.99 143.785 231.99 141.003 231.99 138.236C231.99 137.931 231.507 137.931 231.507 138.236Z" fill="#E8E8E8"/>
<path d="M80.5121 163.133C81.5763 162.458 82.8502 162.249 84.0596 162.619C85.1077 162.94 85.9785 163.374 87.1072 163.326C88.1553 163.278 89.1712 163.005 90.2193 162.94C90.7837 162.908 91.3481 162.924 91.8963 163.117C92.4446 163.31 92.8316 163.6 93.4121 163.632C93.7185 163.648 93.7185 163.165 93.4121 163.149C92.751 163.117 92.1866 162.651 91.5416 162.522C91.0256 162.426 90.4935 162.426 89.9613 162.474C88.8326 162.586 87.72 162.908 86.5912 162.844C85.4141 162.779 84.4143 162.072 83.2533 161.959C82.1891 161.863 81.1571 162.152 80.2702 162.715C80.0122 162.876 80.2541 163.294 80.5121 163.133Z" fill="#E8E8E8"/>
<path d="M121.502 161.766C123.114 161.718 124.727 161.654 126.323 161.605C127.113 161.573 127.936 161.493 128.726 161.557C129.387 161.605 129.887 161.975 130.5 162.12C130.999 162.233 131.483 162.152 131.983 162.04C132.838 161.847 133.676 161.67 134.563 161.637C136.095 161.557 137.627 161.734 139.143 161.911C139.449 161.943 139.449 161.461 139.143 161.428C137.627 161.252 136.095 161.075 134.563 161.155C133.837 161.187 133.112 161.284 132.402 161.445C131.548 161.637 130.887 161.782 130.064 161.412C128.871 160.898 127.613 161.075 126.355 161.123C124.743 161.171 123.13 161.235 121.534 161.284C121.195 161.3 121.195 161.782 121.502 161.766Z" fill="#E8E8E8"/>
<path d="M179.455 177.962C181.084 178.203 182.68 177.898 184.277 177.592C185.26 177.399 186.244 177.206 187.26 177.174C188.259 177.142 189.195 177.367 190.162 177.592C191.001 177.785 191.807 177.866 192.662 177.769C193.516 177.656 194.338 177.431 195.193 177.335C197.047 177.11 198.789 178.01 200.643 177.898C200.95 177.882 200.95 177.399 200.643 177.415C198.918 177.512 197.305 176.708 195.58 176.804C194.758 176.852 193.968 177.061 193.145 177.206C192.049 177.399 191.081 177.319 190.001 177.061C188.388 176.659 186.889 176.627 185.244 176.917C183.357 177.238 181.487 177.769 179.568 177.496C179.278 177.447 179.149 177.914 179.455 177.962Z" fill="#E8E8E8"/>
<path d="M224.154 162.345C227.379 161.268 230.878 162.281 234.2 161.831C235.135 161.702 236.086 161.541 237.038 161.621C237.828 161.686 238.569 161.991 239.343 162.072C240.15 162.136 240.94 161.911 241.73 161.831C242.714 161.734 243.681 161.798 244.649 161.975C244.955 162.04 245.084 161.573 244.778 161.509C243.971 161.364 243.149 161.284 242.327 161.3C241.456 161.332 240.617 161.573 239.747 161.589C238.924 161.605 238.15 161.252 237.328 161.155C236.441 161.042 235.554 161.155 234.667 161.268C232.781 161.525 230.975 161.509 229.088 161.412C227.363 161.332 225.653 161.316 224.009 161.879C223.734 161.975 223.847 162.442 224.154 162.345Z" fill="#E8E8E8"/>
<path d="M90.7837 174.778C104.087 174.778 117.406 174.778 130.709 174.778C131.016 174.778 131.016 174.295 130.709 174.295C117.406 174.295 104.087 174.295 90.7837 174.295C90.4774 174.295 90.4774 174.778 90.7837 174.778Z" fill="#161616"/>
<path d="M127.92 177.399C134.757 177.399 141.578 177.399 148.415 177.399C148.721 177.399 148.721 176.917 148.415 176.917C141.578 176.917 134.757 176.917 127.92 176.917C127.597 176.917 127.597 177.399 127.92 177.399Z" fill="#161616"/>
<path d="M179.923 169.711C187.098 169.711 194.29 169.711 201.466 169.711C201.772 169.711 201.772 169.229 201.466 169.229C194.29 169.229 187.098 169.229 179.923 169.229C179.616 169.229 179.616 169.711 179.923 169.711Z" fill="#161616"/>
<path d="M209.689 170.419C213.946 170.419 218.22 170.419 222.477 170.419C222.783 170.419 222.783 169.936 222.477 169.936C218.22 169.936 213.946 169.936 209.689 169.936C209.383 169.936 209.383 170.419 209.689 170.419Z" fill="#161616"/>
<path d="M34.3946 165.53C41.9895 165.53 49.5682 165.53 57.1631 165.53C57.4695 165.53 57.4695 165.047 57.1631 165.047C49.5682 165.047 41.9895 165.047 34.3946 165.047C34.0882 165.047 34.0882 165.53 34.3946 165.53Z" fill="#161616"/>
<path d="M56.115 163.777C60.3236 163.777 64.5161 163.777 68.7247 163.777C69.0311 163.777 69.0311 163.294 68.7247 163.294C64.5161 163.294 60.3236 163.294 56.115 163.294C55.8086 163.294 55.8086 163.777 56.115 163.777Z" fill="#161616"/>
<path d="M128.468 167.701C133.983 167.701 139.481 167.701 144.996 167.701C145.302 167.701 145.302 167.218 144.996 167.218C139.481 167.218 133.983 167.218 128.468 167.218C128.145 167.218 128.145 167.701 128.468 167.701Z" fill="#161616"/>
<path d="M199.547 84.341C199.611 83.1026 201.966 84.341 202.627 84.2284C203.497 84.0837 203.691 83.1187 204.691 83.3277C205.303 83.4564 205.884 83.7459 206.529 83.6816C206.948 83.6333 207.255 83.3921 207.658 83.2795C208.287 83.1026 208.915 83.2956 209.383 83.7459C209.609 83.955 209.947 83.6172 209.722 83.4082C209.012 82.7327 208.125 82.5879 207.222 82.9257C206.464 83.2152 206.013 83.183 205.255 82.9578C204.884 82.8452 204.497 82.7327 204.11 82.7809C203.659 82.8452 203.481 83.0704 203.175 83.3438C202.256 84.1319 201.595 83.4082 200.627 83.2634C199.885 83.1508 199.128 83.5207 199.079 84.341C199.047 84.6627 199.531 84.6627 199.547 84.341Z" fill="#1E1E1E"/>
<path d="M202.304 81.8963C202.433 80.8348 204.304 81.7355 204.852 81.7837C205.594 81.8481 205.771 81.4299 206.303 81.0439C207.287 80.3202 207.996 81.2369 208.98 81.1887C209.254 81.1726 209.399 81.0117 209.625 80.8831C210.254 80.5292 210.867 80.4488 211.431 80.9796C211.657 81.1887 211.995 80.8509 211.77 80.6418C211.108 80.0307 210.318 79.9824 209.528 80.3362C209.173 80.4971 209.383 80.674 208.77 80.674C208.464 80.674 208.077 80.4327 207.771 80.3523C207.335 80.2397 206.884 80.1754 206.448 80.3523C205.739 80.6418 205.707 81.3495 204.707 81.2691C204.207 81.2369 203.772 80.9313 203.256 80.8992C202.562 80.8509 201.885 81.1404 201.788 81.8802C201.772 82.2019 202.256 82.2019 202.304 81.8963Z" fill="#1E1E1E"/>
<path d="M49.3102 140.07C49.9713 139.587 50.5357 139.362 51.3097 139.732C51.6161 139.877 51.9063 140.038 52.245 140.102C52.9545 140.215 53.5995 139.861 54.2283 139.587C54.8088 139.33 55.2926 139.185 55.9053 139.507C56.244 139.684 56.5181 139.925 56.9051 139.989C57.6791 140.134 58.824 139.394 59.4367 139.989C59.6625 140.198 60.0011 139.861 59.7753 139.652C59.1787 139.073 58.4531 139.346 57.7113 139.475C57.2115 139.555 56.889 139.539 56.4375 139.282C56.2278 139.153 56.0343 138.992 55.7925 138.912C55.47 138.799 55.1475 138.783 54.8088 138.847C54.3735 138.944 53.9703 139.169 53.5511 139.346C52.7932 139.668 52.2933 139.652 51.5193 139.314C50.5357 138.863 49.9068 139.008 49.02 139.652C48.8265 139.829 49.0683 140.247 49.3102 140.07Z" fill="#1E1E1E"/>
<path d="M53.9704 137.577C55.0669 136.355 56.9374 137.77 58.2919 137.48C58.7917 137.368 59.1142 137.207 59.6302 137.384C59.9366 137.496 60.1946 137.705 60.501 137.818C61.0976 138.027 61.662 137.931 62.2102 137.673C62.4844 137.545 62.2425 137.126 61.9684 137.255C60.8396 137.802 60.3397 136.95 59.3561 136.789C59.0497 136.74 58.8079 136.821 58.5176 136.917C57.9694 137.078 57.5501 137.094 56.9696 136.966C55.8409 136.724 54.5186 136.242 53.5995 137.255C53.4221 137.464 53.7607 137.802 53.9704 137.577Z" fill="#1E1E1E"/>
<path d="M88.7036 71.5387C87.4459 70.5898 88.2844 68.4667 89.8969 68.8206C90.558 68.9653 91.1224 69.4961 91.1224 70.2038C91.1224 71.0401 90.4129 71.7799 89.5905 71.8282C89.2841 71.8443 89.2841 72.3268 89.5905 72.3107C90.6225 72.2624 91.4932 71.4422 91.6061 70.4128C91.7029 69.4157 90.9772 68.5793 90.0259 68.3703C87.849 67.8717 86.8009 70.7184 88.4617 71.9729C88.7036 72.1498 88.9455 71.7317 88.7036 71.5387Z" fill="#1E1E1E"/>
<path d="M39.8771 123.054C39.0708 122.169 39.8287 120.593 41.0703 120.931C42.57 121.333 42.183 123.44 40.6833 123.423C40.377 123.423 40.377 123.906 40.6833 123.906C41.5863 123.906 42.4087 123.23 42.5377 122.33C42.6667 121.493 42.1023 120.77 41.3283 120.496C39.5707 119.885 38.3452 122.089 39.5385 123.391C39.7481 123.616 40.0867 123.279 39.8771 123.054Z" fill="#8E8E8E"/>
<path d="M123.034 118.02C122.437 118.454 121.986 119.033 121.792 119.74C121.566 120.577 122.147 121.751 121.582 122.378C121.228 122.78 120.615 123.054 120.454 123.6C120.389 123.793 120.405 123.97 120.47 124.163C120.55 124.437 120.663 124.485 120.663 124.774C120.663 125.257 120.244 125.466 119.841 125.675C119.567 125.82 119.809 126.238 120.083 126.093C120.599 125.82 121.26 125.37 121.212 124.71C121.179 124.292 120.776 124.035 121.002 123.584C121.147 123.311 121.518 123.102 121.728 122.893C122.131 122.523 122.405 122.137 122.34 121.574C122.26 120.963 122.082 120.496 122.244 119.869C122.405 119.274 122.76 118.792 123.259 118.438C123.517 118.261 123.276 117.843 123.034 118.02Z" fill="#8E8E8E"/>
<path d="M125.404 119.628C124.033 119.499 123.872 121.188 123.937 122.169C123.969 122.716 124.001 123.263 123.663 123.713C123.485 123.938 123.227 124.115 123.114 124.388C123.018 124.63 123.082 124.823 123.13 125.08C123.276 125.868 122.84 126.383 122.308 126.897C122.082 127.123 122.421 127.46 122.647 127.235C123.066 126.817 123.55 126.335 123.663 125.723C123.711 125.434 123.598 125.209 123.598 124.935C123.598 124.437 123.904 124.26 124.13 123.906C124.485 123.391 124.469 122.764 124.42 122.169C124.372 121.477 124.324 120.014 125.404 120.11C125.727 120.142 125.71 119.66 125.404 119.628Z" fill="#8E8E8E"/>
<path d="M126.871 60.1516C126.936 59.0419 128.806 59.4601 129.5 59.0901C130 58.8167 130.29 58.3182 130.564 57.8517C130.725 57.5783 130.87 57.2727 131.08 57.0315C131.499 56.549 131.983 56.6133 132.564 56.5651C133.321 56.5007 133.934 56.1308 134.402 55.5357C134.595 55.2945 134.257 54.9567 134.063 55.198C133.612 55.777 133.047 56.0504 132.322 56.0986C131.967 56.1147 131.628 56.0986 131.29 56.2595C130.677 56.5651 130.387 57.2245 130.064 57.7874C129.806 58.2216 129.564 58.5755 129.081 58.7524C128.613 58.9293 128.081 58.8328 127.597 58.9454C126.952 59.0902 126.452 59.4922 126.404 60.1677C126.372 60.4572 126.855 60.4572 126.871 60.1516Z" fill="#8E8E8E"/>
<path d="M128.29 62.1621C128.774 61.374 129.758 61.181 130.532 60.795C131.225 60.4572 131.58 60.023 131.79 59.2832C132.096 58.1412 132.983 58.286 133.966 58.1412C134.563 58.0447 135.047 57.8517 135.289 57.2567C135.402 56.9672 134.934 56.8385 134.821 57.128C134.515 57.8517 133.305 57.6748 132.66 57.8196C131.999 57.9482 131.548 58.2538 131.354 58.9132C131.177 59.5083 131.112 59.8782 130.564 60.216C130.225 60.4251 129.838 60.5698 129.468 60.7307C128.823 61.0041 128.226 61.3097 127.855 61.9208C127.71 62.1782 128.129 62.4194 128.29 62.1621Z" fill="#8E8E8E"/>
<path d="M200.966 135.952C200.579 134.762 201.804 133.54 202.965 134.264C204.239 135.052 203.53 136.853 202.111 136.821C201.804 136.805 201.804 137.287 202.111 137.303C203.917 137.368 204.868 135.068 203.352 133.958C201.869 132.864 199.966 134.408 200.498 136.097C200.595 136.387 201.063 136.258 200.966 135.952Z" fill="#8E8E8E"/>
<path d="M125.001 151.827C124.549 150.99 125.033 149.768 126.114 149.929C126.549 149.993 126.968 150.315 126.968 150.797C126.968 151.264 126.597 151.73 126.114 151.746C125.807 151.762 125.807 152.245 126.114 152.229C127.629 152.164 127.903 150.025 126.484 149.527C124.92 148.996 123.888 150.765 124.582 152.068C124.743 152.341 125.162 152.1 125.001 151.827Z" fill="#8E8E8E"/>
<path d="M193.532 57.4014C193.065 56.8867 193.742 56.163 194.322 56.5007C195.048 56.935 194.613 57.8196 193.935 57.9965C193.629 58.0769 193.758 58.5433 194.064 58.4629C195.241 58.1734 195.645 56.5168 194.387 56.0021C193.323 55.5679 192.42 56.9028 193.177 57.7391C193.403 57.9804 193.742 57.6426 193.532 57.4014Z" fill="#8E8E8E"/>
<path d="M27.7189 73.8225C26.7836 73.34 27.348 71.8603 28.3961 72.1659C29.6216 72.5197 29.2024 74.0959 28.122 74.3211C27.8156 74.3854 27.9446 74.8518 28.251 74.7875C29.8635 74.4337 30.1699 72.0533 28.3961 71.6673C26.8642 71.3296 26.0902 73.5169 27.4609 74.2246C27.7511 74.3854 27.993 73.9673 27.7189 73.8225Z" fill="#1E1E1E"/>
<path d="M24.1392 84.9361C24.1069 91.4337 24.0908 97.9475 24.0585 104.445C53.664 104.333 83.2695 104.22 112.875 104.124C112.794 97.7223 112.698 91.3212 112.617 84.92C83.1244 84.92 53.6318 84.9361 24.1392 84.9361Z" fill="#7F7F7F"/>
<path d="M23.478 84.8878C23.478 91.1925 23.478 97.4811 23.478 103.786C23.478 104.413 24.4455 104.413 24.4455 103.786C24.4455 97.4811 24.4455 91.1925 24.4455 84.8878C24.4455 84.2606 23.478 84.2606 23.478 84.8878Z" fill="#161616"/>
<path d="M24.4132 85.1452C35.9104 85.1452 47.4075 85.1452 58.9046 85.1452C70.4501 85.1452 82.0117 85.1452 93.5573 85.1452C100.056 85.1452 106.554 85.1452 113.069 85.1452C113.697 85.1452 113.697 84.1802 113.069 84.1802C101.571 84.1802 90.0742 84.1802 78.5771 84.1802C67.0316 84.1802 55.47 84.1802 43.9245 84.1802C37.4261 84.1802 30.9277 84.1802 24.4132 84.1802C23.7844 84.1802 23.7844 85.1452 24.4132 85.1452Z" fill="#161616"/>
<path d="M112.536 84.6466C112.617 91.2086 112.698 97.7867 112.778 104.349C112.778 104.976 113.746 104.976 113.746 104.349C113.665 97.7867 113.585 91.2086 113.504 84.6466C113.504 84.0354 112.536 84.0354 112.536 84.6466Z" fill="#161616"/>
<path d="M23.9618 104.719C35.5879 104.719 47.1979 104.719 58.824 104.719C70.4501 104.719 82.0601 104.719 93.6863 104.719C100.217 104.719 106.748 104.719 113.294 104.719C113.923 104.719 113.923 103.754 113.294 103.754C101.668 103.754 90.0581 103.754 78.432 103.754C66.8059 103.754 55.1959 103.754 43.5698 103.754C37.0391 103.754 30.5085 103.754 23.9618 103.754C23.3329 103.754 23.3329 104.719 23.9618 104.719Z" fill="#161616"/>
<path d="M31.4921 93.0743C32.1533 91.4659 32.508 89.7772 32.6048 88.0402C32.4435 88.0402 32.2823 88.0402 32.121 88.0402C32.0565 92.64 31.992 97.2398 31.9436 101.824C31.9436 102.129 32.4274 102.129 32.4274 101.824C32.4919 97.2238 32.5564 92.6239 32.6048 88.0402C32.6048 87.7346 32.1371 87.7346 32.121 88.0402C32.0404 89.7289 31.6695 91.3694 31.0245 92.9456C30.9116 93.2351 31.3793 93.3477 31.4921 93.0743Z" fill="white"/>
<path d="M38.7 92.8009C38.2808 92.1414 38.1195 91.3694 38.3292 90.5974C38.571 89.7128 39.7159 88.6031 40.4738 89.7933C41.1188 90.8226 40.4899 92.6239 40.1674 93.6854C39.4418 96.1301 38.1034 98.3496 36.2974 100.167C36.1684 100.312 36.2329 100.505 36.4103 100.569C38.4743 101.341 40.8769 102.097 42.8442 100.682C43.1022 100.505 42.8603 100.087 42.6023 100.264C40.7318 101.598 38.4743 100.826 36.5393 100.103C36.5715 100.231 36.6038 100.376 36.6522 100.505C37.9583 99.1699 39.0548 97.6419 39.8288 95.9532C40.5544 94.377 41.2639 92.447 41.1994 90.6778C41.151 89.4394 40.0545 88.2171 38.7968 89.0695C37.5229 89.938 37.539 91.8198 38.2808 93.026C38.442 93.2994 38.8613 93.0582 38.7 92.8009Z" fill="white"/>
<path d="M46.2949 89.552C47.9558 89.4716 49.5844 89.552 51.2292 89.8093C51.1808 89.6968 51.1324 89.5681 51.084 89.4555C50.1649 90.6457 49.0845 91.6428 47.8268 92.4631C47.5688 92.64 47.7945 93.0099 48.0687 92.8813C49.278 92.2862 50.5842 93.0582 51.1485 94.184C51.6323 95.1651 51.6645 96.3553 51.4549 97.4007C51.2453 98.43 50.7132 99.4433 49.7779 100.006C48.7782 100.601 47.4559 100.601 46.569 99.8132C46.3433 99.6041 45.9885 99.9418 46.2304 100.151C47.1657 100.987 48.4879 101.116 49.6167 100.617C50.955 100.038 51.7129 98.6713 51.9548 97.2881C52.1805 95.9532 52.0354 94.3931 51.1647 93.2994C50.3584 92.3023 49.0039 91.9002 47.8268 92.4631C47.9074 92.6078 47.988 92.7365 48.0687 92.8813C49.3909 92.0288 50.5358 90.9673 51.5033 89.7128C51.6 89.6003 51.5033 89.3751 51.3582 89.359C49.6812 89.1017 47.988 89.0052 46.2949 89.0856C45.9724 89.0856 45.9724 89.5681 46.2949 89.552Z" fill="white"/>
<path d="M59.3723 88.8443C59.211 90.1471 58.9047 91.3533 58.5338 92.6078C58.3403 93.2833 58.437 93.5246 59.1627 93.5889C60.4365 93.7015 61.7265 93.7337 63.0165 93.8141C63.4035 93.8302 64.8387 94.2162 64.9354 93.5568C64.9838 93.2512 64.5162 93.1225 64.4678 93.4281C64.4678 93.4603 59.9044 93.1708 59.4852 93.1225C59.3562 93.1225 59.2272 93.1064 59.1143 93.0582C58.9047 93.0903 58.8402 93.026 58.953 92.8652C58.9369 92.7204 59.0982 92.4309 59.1465 92.2862C59.2594 91.9002 59.3723 91.5142 59.469 91.1121C59.6464 90.3562 59.7754 89.5842 59.8722 88.8122C59.8883 88.5388 59.4045 88.5388 59.3723 88.8443Z" fill="white"/>
<path d="M62.3715 89.7289C62.4844 93.1386 62.6456 96.5643 62.8391 99.974C62.8552 100.28 63.339 100.28 63.3229 99.974C63.1294 96.5643 62.9842 93.1547 62.8552 89.7289C62.8391 89.4233 62.3554 89.4233 62.3715 89.7289Z" fill="white"/>
<path d="M66.693 88.9569C67.5799 88.8282 68.4345 88.9569 69.3214 89.0373C69.6923 89.0695 70.0793 89.1017 70.4663 89.0856C70.5953 89.0856 71.337 88.9248 71.4338 88.973C71.4015 88.8604 71.3693 88.7478 71.3532 88.6352C71.337 88.6513 71.337 88.6674 71.3209 88.6835C71.4338 88.6513 71.5467 88.6192 71.6595 88.6031C71.6434 88.6031 71.6273 88.587 71.6273 88.587C71.3532 88.4583 71.0952 88.8604 71.3854 89.0052C71.4015 89.0052 71.4177 89.0213 71.4177 89.0213C71.5305 89.0695 71.6757 89.0534 71.7563 88.9408C71.7724 88.9248 71.7724 88.9087 71.7885 88.8926C71.853 88.78 71.8208 88.6352 71.7079 88.5548C71.5467 88.4583 71.4338 88.5066 71.2564 88.5227C70.6598 88.5709 70.1115 88.6192 69.4988 88.5709C68.5152 88.4905 67.5799 88.3457 66.5963 88.4905C66.2577 88.5388 66.3867 89.0052 66.693 88.9569Z" fill="white"/>
<path d="M66.3221 88.7478C66.822 89.9541 67.1445 91.1925 67.3058 92.4792C67.3219 92.6239 67.4509 92.7687 67.6121 92.7043C68.6119 92.3666 69.5955 92.3827 70.3856 93.1547C71.1274 93.8945 71.337 94.956 71.1757 95.9693C71.0467 96.8699 70.6759 98.044 69.7567 98.4139C68.6925 98.8482 67.5799 98.2692 66.6446 97.7706C66.3705 97.6258 66.1286 98.044 66.4028 98.1888C67.467 98.7517 68.7409 99.3789 69.9502 98.8643C71.0306 98.4139 71.4982 97.0951 71.6595 96.0336C71.8369 94.8756 71.5627 93.6693 70.7242 92.8169C69.8212 91.9163 68.6602 91.8358 67.4831 92.2379C67.5799 92.3183 67.6927 92.3988 67.7895 92.4631C67.6283 91.1282 67.2896 89.8415 66.7898 88.6031C66.6608 88.3297 66.1931 88.4583 66.3221 88.7478Z" fill="white"/>
<path d="M76.7551 88.4744C75.0297 89.6485 73.8364 91.482 73.4656 93.5246C73.1914 95.0364 73.1753 97.7706 74.8846 98.4944C76.5938 99.2181 77.9483 96.9021 77.3194 95.4546C76.7228 94.0875 73.9171 93.9106 73.4817 95.5029C73.4011 95.8084 73.8687 95.9371 73.9493 95.6315C74.1751 94.8274 75.3844 94.763 76.0456 94.956C77.0453 95.2455 77.1904 96.4196 76.7551 97.2399C76.2229 98.237 75.0619 98.43 74.4008 97.449C74.0138 96.886 73.8848 96.1944 73.8203 95.535C73.5945 92.9456 74.8362 90.3562 76.9808 88.8765C77.2549 88.7157 77.0131 88.2975 76.7551 88.4744Z" fill="white"/>
<path d="M86.2366 90.324C86.1882 90.2114 85.8979 89.6485 85.9624 89.4394C85.8979 89.2303 86.0108 89.1821 86.2688 89.2786C86.3817 89.2786 86.4784 89.2786 86.5913 89.2786C87.1234 89.2625 87.6394 89.2625 88.1716 89.2464C89.2197 89.2303 90.2678 89.1982 91.3321 89.1821C91.2676 89.0534 91.1869 88.9408 91.1224 88.8122C89.3487 92.3987 88.1877 96.2427 87.7039 100.231C87.8652 100.215 88.0264 100.183 88.1716 100.167C88.1554 100.054 88.1393 99.9418 88.1232 99.8292C88.0748 99.5236 87.6072 99.6523 87.6556 99.9579C87.6717 100.07 87.6878 100.183 87.7039 100.296C87.7523 100.585 88.1554 100.473 88.1716 100.231C88.6553 96.3392 89.784 92.5757 91.5255 89.0534C91.6062 88.8926 91.5094 88.6835 91.3159 88.6835C89.5906 88.7157 87.8491 88.7157 86.1076 88.7961C85.0272 88.8443 85.4948 89.8576 85.8012 90.5652C85.9302 90.8547 86.3494 90.5974 86.2366 90.324Z" fill="white"/>
<path d="M86.8331 95.2294C88.2844 95.5672 89.7356 95.5028 91.1546 95.0525C91.4449 94.956 91.3159 94.4896 91.0256 94.5861C89.6873 95.0203 88.3328 95.0686 86.9621 94.763C86.6558 94.6826 86.5268 95.149 86.8331 95.2294Z" fill="white"/>
<path d="M98.8785 89.3751C98.0884 91.1282 97.3144 92.8813 96.5243 94.6344C96.1534 95.4707 95.7825 96.2909 95.4117 97.1273C95.0569 97.9154 94.7828 98.9286 94.2829 99.6363C94.1055 99.8936 94.5248 100.135 94.7022 99.8775C95.1537 99.2181 95.4278 98.2531 95.7664 97.5133C96.1534 96.6287 96.5565 95.7602 96.9435 94.8756C97.7337 93.1225 98.5076 91.3694 99.2978 89.6163C99.4268 89.3429 99.0075 89.1017 98.8785 89.3751Z" fill="white"/>
<path d="M99.0559 89.2786C98.0722 88.2975 96.5081 89.0534 95.5567 89.7128C94.428 90.4848 93.5572 91.8519 94.1055 93.2512C94.7182 94.8434 96.492 95.2777 97.6369 96.3552C98.556 97.2077 98.9752 98.5748 97.8304 99.4433C96.879 100.167 95.6212 100.006 94.5086 99.7971C94.2022 99.7328 94.0732 100.199 94.3796 100.264C95.7502 100.521 97.3144 100.666 98.3947 99.588C99.33 98.6552 99.1526 97.3203 98.3464 96.3713C97.266 95.0686 95.0085 94.6665 94.5086 92.8973C94.17 91.7232 95.0085 90.6618 95.9276 90.0506C96.6532 89.5681 97.9755 88.8443 98.7495 89.6002C98.9269 89.8415 99.2655 89.5037 99.0559 89.2786Z" fill="white"/>
<path d="M105.57 89.8093C106.457 88.9408 105.393 87.8793 104.409 87.8793C103.216 87.8954 101.459 88.6835 101.152 89.938C100.878 91.0799 101.942 92.1414 103.071 92.1736C104.458 92.2057 105.345 90.8869 105.49 89.6485C105.328 89.6646 105.167 89.6967 105.022 89.7128C105.441 91.868 105.554 94.0875 105.312 96.2748C105.199 97.2398 105.022 98.5908 103.91 98.9286C102.62 99.3146 101.571 98.1888 100.959 97.2238C100.797 96.9664 100.378 97.2077 100.539 97.465C101.152 98.4139 101.975 99.3468 103.168 99.4593C104.216 99.5558 105.022 98.9929 105.409 98.044C105.893 96.8699 105.893 95.4063 105.893 94.1679C105.909 92.6239 105.748 91.096 105.457 89.5842C105.409 89.2947 105.006 89.4073 104.99 89.6485C104.893 90.5009 104.393 91.3694 103.523 91.6267C102.716 91.868 101.733 91.3372 101.604 90.4687C101.475 89.6324 102.249 89.0856 102.926 88.7639C103.264 88.6192 103.619 88.4744 103.974 88.4101C104.248 88.3457 104.522 88.3297 104.796 88.394C105.329 88.5709 105.458 88.9247 105.2 89.4555C105.006 89.6807 105.345 90.0345 105.57 89.8093Z" fill="white"/>
<path d="M135.611 87.0269C135.095 87.4451 134.434 88.0723 133.821 88.9408C133.289 89.6968 132.951 90.4205 132.741 90.9834C133.225 91.2086 134.257 91.7715 134.466 92.7687C134.708 93.8623 133.805 94.8595 132.612 96.1462C131.822 96.9825 130.613 98.1083 128.839 99.1377C128.532 99.1377 127.92 99.1055 127.242 98.7517C126.436 98.3174 126.049 97.6741 125.904 97.4168C125.227 97.6098 124.356 97.9314 123.405 98.4943C122.518 99.0251 121.841 99.6041 121.357 100.087C121.583 100.601 122.26 102.017 123.792 102.628C124.388 102.869 125.146 102.998 126.549 102.756C127.968 102.515 129.887 101.936 132.16 100.392C135.402 98.1888 137.014 95.6154 137.466 94.8434C138.594 92.9295 139.401 91.5624 138.933 90.0023C138.336 88.0562 136.111 87.2038 135.611 87.0269Z" fill="#161616"/>
<path d="M125.936 94.0071C126.807 92.7848 128 91.868 129.387 91.3212C129.677 91.2086 129.548 90.7422 129.258 90.8548C127.742 91.4499 126.468 92.4309 125.517 93.7659C125.324 94.0232 125.743 94.2644 125.936 94.0071Z" fill="#161616"/>
<path d="M123.276 94.2966C124.582 91.4498 127.113 89.359 130.177 88.6031C130.484 88.5227 130.355 88.0562 130.048 88.1367C126.888 88.9087 124.227 91.096 122.856 94.0393C122.727 94.3448 123.131 94.5861 123.276 94.2966Z" fill="#161616"/>
<path d="M121.034 94.8113C121.405 92.5918 122.614 90.6457 124.34 89.1821C125.985 87.7828 128.516 86.271 130.758 86.5605C131.064 86.5927 131.064 86.1102 130.758 86.078C128.468 85.7885 125.92 87.2843 124.195 88.6674C122.324 90.1793 120.97 92.2862 120.567 94.6665C120.518 94.9882 120.986 95.1169 121.034 94.8113Z" fill="#161616"/>
<path d="M148.56 166.591C148.624 168.682 148.673 170.773 148.737 172.864C142.077 174.826 138.804 176.112 138.917 176.724C139.062 177.496 144.399 177.238 154.929 175.952C154.703 172.381 154.478 168.795 154.236 165.224C152.349 165.674 150.462 166.125 148.56 166.591Z" fill="#161616" stroke="#161616" stroke-width="2" stroke-miterlimit="10"/>
<path d="M169.635 125.37C168.668 125.659 168.877 125.772 163.653 129.776C158.122 134.006 155.364 136.129 153.446 137.207C152.333 137.834 151.43 138.284 150.317 139.314C148.479 141.035 147.544 142.997 146.818 144.911C144.561 150.878 144.222 156.587 144.158 159.128C144.093 161.477 144.141 164.79 144.706 168.762C146.447 169.181 147.899 169.293 148.931 169.309C150.72 169.341 153.268 169.374 155.913 168.023C156.687 167.62 157.283 167.202 157.654 166.929C157.187 164.179 156.832 160.721 157.009 156.748C157.154 153.548 157.59 150.733 158.106 148.401C158.96 147.758 160.266 146.841 161.96 145.924C163.911 144.879 165.862 144.107 171.248 142.53C177.698 140.649 177.923 140.858 178.875 140.054C181.342 137.995 183.116 133.845 181.729 130.243C179.923 125.498 173.57 124.228 169.635 125.37Z" fill="white"/>
<path d="M167.152 126.994C164.169 129.069 161.202 131.16 158.218 133.234C155.574 135.084 152.736 136.821 150.317 138.992C147.995 141.067 146.705 143.656 145.867 146.616C144.948 149.897 144.351 153.29 144.045 156.684C143.69 160.592 143.77 164.516 144.222 168.409C144.254 168.714 144.738 168.714 144.706 168.409C143.916 161.75 144.303 154.979 145.883 148.481C146.641 145.345 147.64 142.321 149.979 139.989C152.236 137.738 155.074 136.033 157.67 134.215C160.911 131.948 164.152 129.68 167.394 127.412C167.652 127.235 167.41 126.817 167.152 126.994Z" fill="#161616"/>
<path d="M176.295 140.633C172.747 141.646 169.248 142.772 165.797 144.058C164.282 144.621 162.734 145.184 161.25 145.844C160.025 146.391 158.88 147.082 158.17 148.256C158.009 148.53 158.428 148.771 158.589 148.497C159.363 147.195 160.75 146.551 162.089 146.005C163.637 145.377 165.201 144.782 166.781 144.203C169.958 143.045 173.166 142.016 176.408 141.099C176.714 141.019 176.585 140.552 176.295 140.633Z" fill="#161616"/>
<path d="M158.38 145.844C156.703 152.679 156.396 159.788 157.477 166.736C157.525 167.041 157.993 166.913 157.944 166.607C156.88 159.74 157.187 152.711 158.847 145.972C158.912 145.667 158.444 145.538 158.38 145.844Z" fill="#161616"/>
<path d="M144.432 168.392C144.512 169.293 145.915 169.148 146.528 169.213C148.011 169.357 149.495 169.47 150.995 169.39C153.413 169.261 155.784 168.585 157.686 167.041C157.928 166.848 157.59 166.511 157.348 166.704C155.719 168.023 153.704 168.666 151.64 168.859C150.575 168.955 149.511 168.955 148.447 168.891C148.06 168.875 144.948 168.795 144.915 168.392C144.883 168.087 144.399 168.087 144.432 168.392Z" fill="#161616"/>
<path opacity="0.11" d="M176.15 135.213C173.924 134.087 171.377 136.966 165.088 139.828C159.944 142.177 158.67 141.598 156.654 142.82C153.107 144.959 149.963 151.055 152.22 168.762C152.72 168.762 153.3 168.714 153.945 168.585C155.639 168.232 156.848 167.427 157.574 166.865C157.009 163.342 156.671 158.903 157.219 153.837C157.445 151.698 157.799 149.736 158.219 147.967C159.75 147.082 162.137 145.811 165.201 144.621C172.634 141.71 177.246 141.887 177.988 139.282C178.375 137.818 177.472 135.872 176.15 135.213Z" fill="#666666"/>
<path opacity="0.12" d="M174.521 141.179C174.44 140.745 169.216 140.97 163.733 142.804C160.234 143.962 158.331 144.605 156.67 146.423C154.026 149.285 153.881 152.969 153.671 158.083C153.575 160.512 153.639 164.018 154.494 168.216C155.558 167.878 156.606 167.556 157.67 167.218C157.267 164.227 157.009 160.624 157.219 156.555C157.38 153.515 157.751 150.797 158.218 148.417C158.686 147.918 159.396 147.211 160.395 146.519C162.572 144.991 164.491 144.605 166.749 143.994C169.667 143.174 174.601 141.598 174.521 141.179Z" fill="#666666"/>
<path d="M201.562 155.638C205.078 154.496 208.061 153.853 210.238 153.467C213.35 152.92 214.075 153.033 214.656 153.467C215.656 154.207 215.446 155.301 215.817 162.12C215.946 164.356 216.011 164.918 215.559 165.61C214.027 168.039 208.932 167.926 208.545 166.865C208.4 166.446 208.883 165.674 211.302 164.114C211.221 162.586 211.141 161.058 211.044 159.531C208.287 160.19 205.529 160.865 202.788 161.525C202.401 159.579 201.982 157.617 201.562 155.638Z" fill="#161616" stroke="#161616" stroke-width="2" stroke-miterlimit="10"/>
<path d="M173.392 127.943C172.328 130.436 173.086 133.106 173.441 134.36C173.844 135.808 174.231 136.001 174.876 137.947C175.569 140.038 175.779 141.549 176.069 143.367C176.488 146.021 176.972 149.044 177.73 152.068C178.665 155.799 179.181 157.713 180.729 159.788C181.406 160.705 183.003 162.763 185.808 163.857C186.34 164.066 187.05 164.291 188.808 164.516C190.743 164.774 193.742 165.16 197.709 164.677C201.095 164.275 203.917 163.374 206.029 162.522C206.448 160.978 206.432 159.691 206.368 158.871C206.271 157.842 206.11 155.928 204.707 154.303C204.304 153.837 203.707 153.162 202.707 152.808C201.611 152.438 200.627 152.679 198.886 153.145C196.87 153.676 196.128 154.255 194.806 153.982C194.242 153.869 193.822 153.644 193.564 153.483C193.177 152.888 192.645 151.987 192.145 150.829C190.839 147.806 190.743 145.377 190.565 142.707C190.162 136.692 189.952 133.685 188.985 130.355C187.969 126.865 187.679 125.112 186.163 124.051C184.599 122.957 182.825 123.037 181.729 123.086C179.036 123.198 174.876 124.485 173.392 127.943Z" fill="white"/>
<path d="M186.937 125.16C189.582 130.693 189.791 136.901 190.372 142.884C190.791 147.211 191.162 153.146 195.564 155.429C195.838 155.574 196.08 155.156 195.806 155.011C193.548 153.837 192.42 151.521 191.791 149.157C191.114 146.567 190.936 143.849 190.71 141.179C190.227 135.647 189.791 130.002 187.373 124.903C187.227 124.63 186.808 124.871 186.937 125.16Z" fill="#161616"/>
<path d="M173.828 136.178C176.666 142.595 175.956 149.913 178.713 156.346C179.81 158.919 181.455 161.332 183.793 162.924C186.631 164.838 190.323 165.224 193.661 165.176C197.87 165.112 202.014 164.146 205.916 162.619C206.207 162.506 206.078 162.04 205.787 162.152C202.385 163.487 198.805 164.404 195.145 164.629C191.662 164.854 187.695 164.677 184.615 162.876C179.213 159.708 177.778 152.904 176.907 147.227C176.327 143.383 175.811 139.507 174.215 135.92C174.118 135.663 173.699 135.904 173.828 136.178Z" fill="#161616"/>
<path d="M193.258 153.564C196.177 155.268 199.515 151.987 202.595 152.985C204.304 153.548 205.142 155.381 205.61 156.989C206.126 158.726 206.19 160.544 205.836 162.313C205.771 162.619 206.239 162.747 206.303 162.442C206.626 160.769 206.61 159.048 206.223 157.391C205.852 155.88 205.207 154.159 203.933 153.162C202.756 152.229 201.192 152.213 199.773 152.486C197.87 152.856 195.371 154.255 193.5 153.162C193.226 153.001 192.984 153.403 193.258 153.564Z" fill="#161616"/>
<path opacity="0.11" d="M184.551 124.951C181.842 127.605 187.308 133.443 187.405 143.254C187.485 150.926 185.663 154.11 188.114 156.684C191.629 160.367 199.579 158.244 200.45 158.003C201.837 157.617 204.804 157.054 205.045 155.558C205.191 154.577 204.159 153.467 203.11 152.92C199.918 151.232 196.935 154.963 194.129 153.741C192.017 152.808 191.549 149.72 190.662 143.978C189.936 139.266 190.388 138.268 189.533 133.09C188.904 129.278 188.098 124.517 186.163 124.244C185.389 124.115 184.68 124.807 184.551 124.951Z" fill="#666666"/>
<path opacity="0.17" d="M188.937 131.256C188.679 131.272 188.663 134.36 188.63 138.172C188.55 148.996 189.162 151.296 190.565 153.322C191.146 154.159 192.242 155.703 194.242 156.571C198.66 158.517 204.53 155.96 204.546 154.336C204.546 153.515 203.046 152.904 202.804 152.808C201.272 152.197 200.095 152.792 196.983 153.322C195.693 153.548 194.597 153.66 193.823 153.724C193.242 153.001 192.436 151.875 191.791 150.363C190.549 147.516 190.646 145.2 190.565 142.74C190.388 136.66 189.259 131.24 188.937 131.256Z" fill="#666666"/>
<path d="M129.016 104.445C129.048 104.075 129.903 103.882 130.419 103.77C132.531 103.303 134.354 103.657 134.837 103.85C135.74 104.204 136.643 104.558 137.562 104.912C137.611 104.638 137.756 104.059 138.224 103.625C139.062 102.869 140.255 103.159 140.578 103.255C140.997 103.368 141.658 103.625 142.787 104.847C143.948 106.102 144.109 106.745 144.77 107.565C146.302 109.463 148.608 109.962 149.769 110.203C150.785 110.428 152.833 110.862 155.139 109.897C157.17 109.045 158.315 107.549 158.815 106.874C159.299 106.214 159.46 105.828 160.428 103.625C162.395 99.1377 163.024 97.7545 164.394 96.3713C165.136 95.6154 166.039 94.7308 166.974 94.9399C168.119 95.1972 168.603 96.9825 168.813 97.7384C169.038 98.5748 169.329 100.167 168.667 102.949C168.442 103.914 167.668 106.761 165.426 109.897C164.491 111.216 163.185 113.002 160.863 114.513C159.847 115.173 158.186 116.234 155.784 116.556C153.655 116.845 152.026 116.411 150.64 116.025C149.108 115.607 146.56 114.674 143.867 112.471C142.142 112.551 140.82 112.664 139.9 112.776C138.336 112.953 137.675 113.098 136.966 112.696C136.724 112.551 136.369 112.294 135.869 112.326C135.402 112.358 135.24 112.616 134.837 112.696C134.386 112.792 133.644 112.712 133.225 112.165C132.886 111.731 132.918 111.184 132.935 111.007C132.66 110.766 132.225 110.316 132.015 109.64C131.87 109.174 131.886 108.788 131.886 108.353C131.903 107.839 131.903 107.581 132.032 107.372C132.402 106.729 133.467 106.761 133.628 106.777C133.112 106.391 132.644 106.182 132.354 106.07C131.354 105.668 130.822 105.796 129.903 105.298C129.532 105.072 128.984 104.767 129.016 104.445Z" fill="white"/>
<path d="M167.119 94.7308C165.717 94.2001 164.668 95.3742 163.927 96.4196C162.814 97.9797 161.863 99.6523 161.056 101.389C159.541 104.702 158.509 108.562 155.397 110.782C155.139 110.959 155.38 111.377 155.638 111.2C158.154 109.383 159.412 106.536 160.557 103.754C161.25 102.081 161.992 100.44 162.895 98.8803C163.346 98.1244 163.814 97.3685 164.33 96.6608C164.943 95.8084 165.765 94.7469 166.974 95.1972C167.281 95.3098 167.41 94.8434 167.119 94.7308Z" fill="#161616"/>
<path d="M138.917 105.201C138.224 105.426 137.949 104.574 138.159 104.107C138.32 103.738 138.74 103.545 139.094 103.432C139.772 103.239 140.546 103.368 141.174 103.673C142.223 104.188 142.819 105.233 143.464 106.166C144.593 107.807 146.093 109.125 147.915 109.93C151.543 111.522 155.784 110.669 158.573 107.871C158.799 107.646 158.444 107.308 158.235 107.533C156.332 109.463 153.639 110.493 150.93 110.235C148.157 109.978 145.641 108.37 144.029 106.134C142.835 104.445 141.336 102.177 138.869 102.998C138.175 103.223 137.498 103.834 137.611 104.622C137.708 105.33 138.353 105.893 139.062 105.651C139.336 105.571 139.207 105.105 138.917 105.201Z" fill="#161616"/>
<path d="M137.24 104.542C135.95 103.898 134.595 103.4 133.16 103.255C131.903 103.126 130.145 103.175 129.113 104.027C128.178 104.799 129.403 105.298 130.064 105.571C131.58 106.198 133.289 106.391 134.757 107.147C135.031 107.292 135.273 106.874 134.999 106.729C134.096 106.263 133.128 106.037 132.161 105.764C131.645 105.619 131.145 105.458 130.645 105.265C130.371 105.169 129.822 105.056 129.613 104.831C129.242 104.445 129.71 104.204 130.064 104.075C132.306 103.158 134.95 103.93 137.014 104.96C137.272 105.088 137.514 104.67 137.24 104.542Z" fill="#161616"/>
<path d="M134.644 106.842C133.95 106.423 133.08 106.375 132.386 106.809C131.822 107.147 131.354 107.887 131.612 108.546C131.902 109.302 133.031 109.383 133.692 109.511C134.708 109.688 135.676 109.688 136.611 109.222C136.885 109.077 136.643 108.659 136.369 108.804C135.321 109.335 134.16 109.142 133.047 108.884C132.612 108.788 132.596 108.804 132.322 108.337C131.967 108.048 131.983 107.742 132.338 107.453C132.435 107.372 132.531 107.308 132.628 107.228C133.176 106.89 133.854 106.938 134.402 107.26C134.66 107.421 134.902 107.002 134.644 106.842Z" fill="#161616"/>
<path d="M131.87 108.82C131.548 109.704 131.967 110.621 132.789 111.055C133.854 111.618 135.063 111.2 136.079 110.798C136.369 110.686 136.24 110.219 135.95 110.332C135.273 110.605 134.531 110.895 133.789 110.83C132.822 110.75 131.967 109.962 132.338 108.948C132.435 108.659 131.967 108.53 131.87 108.82Z" fill="#161616"/>
<path d="M132.628 110.846C132.338 111.747 133.064 112.503 133.886 112.744C135.095 113.082 136.063 112.406 136.934 111.65C137.175 111.441 136.821 111.104 136.595 111.313C136.047 111.779 135.482 112.278 134.741 112.342C133.999 112.406 132.773 111.956 133.096 110.975C133.193 110.685 132.725 110.557 132.628 110.846Z" fill="#161616"/>
<path d="M135.434 107.694C135.918 107.855 136.659 108.289 136.272 108.884C136.111 109.142 136.53 109.383 136.692 109.125C136.917 108.772 136.901 108.305 136.659 107.951C136.417 107.565 135.982 107.356 135.547 107.228C135.256 107.131 135.127 107.597 135.434 107.694Z" fill="#161616"/>
<path d="M136.127 109.334C136.466 109.704 136.321 110.283 135.837 110.428C135.547 110.509 135.66 110.975 135.966 110.895C136.821 110.653 137.063 109.624 136.482 108.981C136.256 108.772 135.918 109.109 136.127 109.334Z" fill="#161616"/>
<path d="M136.353 110.525C136.676 110.702 136.724 111.184 136.466 111.425C136.24 111.634 136.579 111.988 136.805 111.763C137.288 111.297 137.192 110.428 136.595 110.106C136.337 109.962 136.079 110.38 136.353 110.525Z" fill="#161616"/>
<path d="M136.917 104.928C137.272 105.088 137.627 105.265 137.982 105.426C138.256 105.555 138.514 105.137 138.223 105.008C137.869 104.847 137.514 104.67 137.159 104.509C136.885 104.381 136.643 104.799 136.917 104.928Z" fill="#161616"/>
<path d="M139.11 105.667C139.465 105.362 139.949 105.233 140.416 105.346C140.723 105.41 140.852 104.944 140.545 104.879C139.9 104.735 139.272 104.895 138.772 105.33C138.53 105.539 138.868 105.877 139.11 105.667Z" fill="#161616"/>
<path d="M139.385 106.246C138.933 107.581 139.465 109.061 140.675 109.785C140.949 109.946 141.191 109.527 140.916 109.367C139.884 108.755 139.465 107.485 139.852 106.375C139.949 106.07 139.481 105.941 139.385 106.246Z" fill="#161616"/>
<path d="M135.982 112.406C136.95 113.098 137.998 113.243 139.143 113.018C140.739 112.728 142.271 112.583 143.899 112.76C144.206 112.792 144.206 112.31 143.899 112.278C142.642 112.133 141.384 112.149 140.126 112.342C138.691 112.567 137.514 112.905 136.224 111.988C135.966 111.811 135.724 112.229 135.982 112.406Z" fill="#161616"/>
<path d="M143.48 112.551C145.786 113.645 147.915 115.108 150.301 116.009C152.494 116.829 154.897 116.99 157.186 116.427C159.541 115.848 161.443 114.465 163.104 112.744C164.83 110.975 166.378 108.981 167.474 106.745C168.764 104.14 169.393 101.245 169.071 98.3496C169.038 98.044 168.555 98.044 168.587 98.3496C168.942 101.534 168.119 104.703 166.539 107.469C165.072 110.042 162.991 112.616 160.557 114.353C158.106 116.09 154.929 116.669 151.994 116.009C148.995 115.334 146.463 113.42 143.706 112.117C143.448 112.004 143.206 112.423 143.48 112.551Z" fill="#161616"/>
<path opacity="0.16" d="M167.765 96.5965C167.136 96.6286 167.216 99.2985 166.458 102.033C165.346 105.989 162.153 111.184 157.461 112.776C154.139 113.902 150.785 112.969 145.448 111.474C143.754 111.007 140.771 110.026 136.643 109.769C133.241 109.56 132.402 110.042 132.37 110.299C132.354 110.46 132.66 110.573 132.838 111.088C132.983 111.522 132.822 111.667 132.967 111.94C133.225 112.439 133.999 112.503 134.273 112.535C134.95 112.599 135.498 112.358 135.789 112.213C136.095 112.358 136.579 112.551 137.175 112.68C138.336 112.921 138.997 112.696 140.465 112.551C141.981 112.406 142.98 112.31 144.077 112.615C145.125 112.905 145.609 113.387 146.512 113.999C146.786 114.176 149.366 115.896 152.559 116.427C153.558 116.588 155.848 116.942 158.396 115.961C159.847 115.414 160.766 114.658 161.814 113.806C162.476 113.259 165.426 110.75 167.587 106.07C168.539 104.027 169.313 102.306 169.103 100.038C168.926 98.3817 168.297 96.5643 167.765 96.5965Z" fill="#666666"/>
<path opacity="0.17" d="M136.901 111.007C137.675 110.621 138.578 110.943 138.933 111.071C140.949 111.763 141.142 111.281 144.19 111.731C146.705 112.101 146.802 112.825 150.108 113.886C153.284 114.915 155.848 115.736 158.38 114.931C161.976 113.79 163.637 110.171 163.766 110.283C163.895 110.38 162.443 113.886 158.976 115.527C155.832 117.022 152.559 116.266 151.623 116.057C150.108 115.703 148.882 115.124 147.544 114.481C145.98 113.741 144.754 112.969 143.867 112.39C142.739 112.342 141.852 112.439 141.239 112.519C139.739 112.744 139.11 113.082 137.885 112.905C137.562 112.857 136.224 112.664 136.111 112.053C136.047 111.651 136.482 111.216 136.901 111.007Z" fill="#666666"/>
<path d="M165.426 95.342C164.991 95.8727 164.427 96.7573 164.007 103.786C163.782 107.678 163.556 111.763 163.894 117.762C164.04 120.207 164.314 123.552 164.878 127.509C166.684 128.538 169.974 130.066 174.327 130.323C181.309 130.741 186.405 127.589 188.114 126.431C187.243 124.71 186.05 122.04 185.292 118.631C184.357 114.449 184.809 112.599 184.309 107.469C183.648 100.682 183.325 97.2881 181.261 95.2294C177.31 91.2729 168.635 91.4016 165.426 95.342Z" fill="#3A3A3A"/>
<path opacity="0.22" d="M174.214 92.447C175.359 94.1518 176.827 96.6769 177.988 99.9579C178.488 101.389 180.971 108.755 179.165 118.229C178.213 123.263 176.359 127.316 174.585 130.307C175.827 130.388 177.278 130.371 178.875 130.162C183.116 129.583 186.292 127.83 188.179 126.544C187.582 125.45 186.824 123.906 186.179 121.976C186.05 121.558 185.421 119.676 185.002 116.749C184.712 114.755 184.76 114.095 184.567 110.846C184.518 110.09 184.325 107.018 183.906 103.48C183.293 98.3013 182.825 97.1755 182.051 96.1783C180.955 94.763 179.568 94.0071 178.955 93.6693C177.02 92.6722 175.214 92.4792 174.214 92.447Z" fill="#666666"/>
<path opacity="0.22" d="M183.922 104.526C183.68 107.131 183.357 109.817 182.97 112.583C182.083 118.824 180.906 124.63 179.568 129.953C180.664 129.809 182.067 129.519 183.599 128.924C185.599 128.152 187.098 127.123 188.114 126.318C185.97 122.555 185.228 119.403 184.954 117.151C184.68 114.883 184.776 112.696 184.244 107.356C184.115 106.166 184.002 105.185 183.922 104.526Z" fill="#666666"/>
<path d="M158.847 76.2028C158.525 76.9909 158.541 77.9237 158.541 79.8055C158.541 81.1404 158.557 83.0061 159.251 85.2095C159.783 86.9143 160.299 88.6192 161.895 90.131C162.347 90.5652 164.298 92.4148 167.055 92.4148C167.587 92.4148 168.039 92.3505 168.329 92.2862C168.458 92.7687 168.732 93.4442 169.248 94.1357C169.522 94.4896 169.796 94.763 170.038 94.9721C170.425 94.9721 171.409 94.9077 172.425 94.2644C173.392 93.6371 173.844 92.8169 174.005 92.4631C173.715 92.1736 172.957 91.3211 172.908 90.0827C172.892 89.745 172.941 89.4555 172.989 89.1982C173.521 88.5226 174.086 87.6381 174.569 86.5605C174.811 86.0297 174.989 85.5312 175.15 85.0647C175.392 85.1291 175.875 85.2095 176.343 84.9843C176.843 84.727 177.02 84.2284 177.23 83.6172C177.536 82.7166 177.875 81.7033 177.456 80.8027C177.053 79.9502 176.424 80.1432 175.875 79.3552C175.037 78.1811 175.859 76.9909 175.521 75.7042C175.005 73.726 172.134 72.8736 171.022 72.5358C166.458 71.1848 160.266 72.6967 158.847 76.2028Z" fill="white"/>
<path d="M158.428 78.5188C158.831 78.5832 159.089 77.9559 159.718 77.3286C160.363 76.7014 161.443 76.042 163.378 75.8651C164.959 75.7042 166.539 75.5273 168.119 75.3665C168.619 75.3986 169.764 75.5273 170.909 76.3154C171.828 76.9587 172.328 77.7307 172.57 78.1489C173.07 78.165 173.553 78.1971 174.053 78.2132C174.15 78.8083 174.263 79.4034 174.36 79.9985C174.424 79.9341 175.295 79.1622 176.198 79.4517C176.923 79.6768 177.23 80.4488 177.359 80.8027C177.762 81.7837 177.488 82.5718 177.73 82.6362C178.02 82.7327 178.584 81.6712 178.649 81.5264C178.794 81.253 179.262 80.3041 179.391 78.8244C179.487 77.6182 179.552 76.814 179.084 76.0581C178.923 75.8007 178.762 75.6399 178.713 75.3182C178.633 74.7071 179.116 74.3693 179.391 73.7903C179.536 73.4847 179.568 73.1952 179.149 70.9757C178.697 68.5954 178.536 68.2737 178.294 68.2094C177.972 68.1451 177.681 68.5793 177.31 68.9492C176.665 69.6086 175.553 70.3324 173.489 70.6058C173.489 69.8821 173.392 69.3031 173.311 68.8849C173.166 68.2416 173.086 68.2416 172.57 66.7297C172.279 65.8773 172.215 65.5235 172.021 65.5074C171.699 65.4752 171.586 66.2955 170.828 66.585C170.49 66.7136 170.361 66.6011 169.909 66.6654C169.506 66.7136 168.958 66.8906 168.329 67.4213C168.329 67.4213 167.361 68.0807 165.749 68.901C163.959 69.8016 163.362 68.8206 161.508 69.6408C160.121 70.252 159.283 71.3456 158.928 71.8442C158.573 72.3428 157.573 73.7903 157.573 75.7846C157.541 76.9266 157.864 78.4384 158.428 78.5188Z" fill="#353535"/>
<path d="M158.444 79.1621C158.17 81.8963 158.622 84.6787 159.783 87.1716C160.766 89.2786 162.33 91.3694 164.588 92.2057C166.894 93.0581 169.538 92.4309 171.457 90.9834C173.408 89.5037 174.634 87.3003 175.359 85.0004C175.456 84.7109 174.988 84.5822 174.892 84.8717C174.198 87.0591 173.037 89.166 171.183 90.5813C169.264 92.0288 166.571 92.64 164.33 91.5785C162.314 90.6296 160.96 88.6513 160.089 86.6731C159.041 84.3088 158.67 81.7194 158.928 79.1621C158.96 78.8566 158.476 78.8566 158.444 79.1621Z" fill="#161616"/>
<path d="M174.698 80.3684C174.924 79.3873 176.069 79.4195 176.649 80.0467C177.149 80.5614 177.262 81.3173 177.278 82.0089C177.311 83.1669 176.891 85.306 175.23 84.7752C174.94 84.6787 174.811 85.1451 175.101 85.2416C177.456 85.9975 177.972 82.7326 177.681 81.1565C177.504 80.2397 176.907 79.2586 175.892 79.13C175.118 79.0335 174.408 79.516 174.231 80.2719C174.166 80.5292 174.634 80.6579 174.698 80.3684Z" fill="#161616"/>
<path d="M164.427 79.3551C164.056 80.1271 163.685 80.8831 163.33 81.6551C163.153 82.0572 162.959 82.4592 162.992 82.9256C163.072 83.8746 163.911 84.5018 164.781 84.7109C165.088 84.7913 165.217 84.3249 164.91 84.2445C163.862 83.9872 163.217 83.1508 163.669 82.0893C164.024 81.253 164.443 80.4327 164.846 79.5964C164.975 79.323 164.556 79.0817 164.427 79.3551Z" fill="#161616"/>
<path d="M162.072 81.462C161.976 81.3495 161.911 81.2047 161.895 81.06C161.879 80.9956 161.879 80.9152 161.895 80.8509C161.895 80.8026 161.976 80.6579 161.976 80.6257C161.943 80.6257 161.927 80.6418 161.895 80.6418C161.911 80.69 161.911 80.7383 161.911 80.7865C161.911 80.867 161.911 80.9474 161.911 81.0278C161.895 81.2369 161.847 81.4299 161.766 81.6229C161.895 81.5907 162.04 81.5585 162.169 81.5103C162.008 81.3655 161.943 81.2208 161.96 80.9956C161.992 80.69 161.508 80.69 161.476 80.9956C161.444 81.3173 161.572 81.639 161.83 81.848C161.976 81.9767 162.169 81.9124 162.234 81.7355C162.379 81.3655 162.443 80.9474 162.379 80.5614C162.33 80.288 162.105 80.0145 161.814 80.1432C161.54 80.2558 161.427 80.6418 161.427 80.9313C161.427 81.253 161.54 81.5585 161.766 81.7998C161.943 82.041 162.282 81.6872 162.072 81.462Z" fill="#161616"/>
<path d="M168.232 81.2208C168.184 81.0922 168.152 80.9796 168.152 80.8509C168.152 80.7866 168.168 80.7222 168.184 80.6579C168.184 80.6418 168.2 80.6097 168.2 80.5936C168.232 80.5453 168.216 80.5453 168.135 80.5936C168.135 80.6097 168.168 80.6901 168.168 80.7222C168.168 80.7866 168.168 80.8509 168.152 80.9152C168.119 81.06 168.055 81.1887 167.974 81.3012C168.103 81.3173 168.232 81.3334 168.361 81.3495C168.168 81.0761 168.184 80.7544 168.393 80.481C168.264 80.4971 168.135 80.5132 168.006 80.5292C168.168 80.7222 168.055 81.0117 167.861 81.1082C167.974 81.1565 168.103 81.2047 168.216 81.253C168.168 81.1243 168.135 81.0117 168.119 80.867C168.119 80.7866 168.135 80.7062 168.135 80.6257C168.135 80.5936 168.152 80.5775 168.152 80.5453C168.103 80.481 168.087 80.4649 168.119 80.5132C168.168 80.6418 168.2 80.7383 168.184 80.8831C168.184 80.9474 168.152 81.0439 168.152 81.0922C168.152 81.1243 168.135 81.1404 168.135 81.1726C168.248 81.1565 168.264 81.1243 168.2 81.06C168.022 80.8027 167.603 81.0439 167.781 81.3012C167.958 81.5586 168.345 81.7837 168.555 81.4138C168.716 81.1082 168.716 80.5775 168.555 80.288C168.377 79.9824 167.958 79.8859 167.748 80.2237C167.555 80.5453 167.603 81.0278 167.732 81.3656C167.797 81.5103 167.942 81.5907 168.087 81.5103C168.587 81.253 168.684 80.5936 168.329 80.1754C168.216 80.0467 168.039 80.1111 167.942 80.2237C167.652 80.6097 167.636 81.1726 167.91 81.5747C167.99 81.6872 168.184 81.7516 168.297 81.6229C168.587 81.253 168.893 80.3845 168.313 80.1111C168.055 79.9985 167.829 80.1593 167.748 80.4006C167.636 80.7062 167.636 81.0439 167.765 81.3334C167.894 81.6229 168.361 81.5103 168.232 81.2208Z" fill="#161616"/>
<path d="M163.072 78.5188C162.234 77.972 161.137 78.2293 160.605 79.0496C160.444 79.3069 160.863 79.5481 161.024 79.2908C161.411 78.6796 162.217 78.5349 162.83 78.9209C163.088 79.0978 163.33 78.6797 163.072 78.5188Z" fill="#161616"/>
<path d="M167.523 78.6475C168.264 78.0202 169.409 78.2132 169.748 79.1621C169.845 79.4516 170.312 79.323 170.216 79.0335C169.748 77.7307 168.2 77.4251 167.184 78.3097C166.958 78.5027 167.297 78.8405 167.523 78.6475Z" fill="#161616"/>
<path d="M168.119 92.4631C168.377 93.412 168.877 94.2644 169.603 94.9399C169.829 95.149 170.167 94.8112 169.941 94.6021C169.28 93.9749 168.813 93.219 168.587 92.3344C168.49 92.0288 168.022 92.1575 168.119 92.4631Z" fill="#161616"/>
<path d="M172.57 89.4877C172.715 90.5652 173.086 91.5463 173.715 92.447C173.892 92.7043 174.311 92.4631 174.134 92.2057C173.553 91.3855 173.183 90.4848 173.054 89.4877C173.021 89.1982 172.538 89.1821 172.57 89.4877Z" fill="#161616"/>
<path d="M169.635 95.0203C171.376 95.6154 173.376 94.2161 174.021 92.6239C174.134 92.3344 173.666 92.2057 173.553 92.4952C173.005 93.8462 171.215 95.0525 169.764 94.5539C169.474 94.4574 169.345 94.9238 169.635 95.0203Z" fill="#161616"/>
<path d="M168.41 92.7204C169.571 92.5274 170.603 91.9806 171.425 91.1442C171.635 90.9191 171.296 90.5813 171.086 90.8065C170.312 91.5945 169.361 92.0771 168.281 92.2701C167.974 92.3183 168.103 92.7686 168.41 92.7204Z" fill="#161616"/>
<path d="M168.684 93.0421C170.038 92.6561 171.57 91.5946 172.183 90.3079C172.312 90.0345 171.893 89.7771 171.764 90.0666C171.199 91.2407 169.796 92.2379 168.538 92.5917C168.248 92.6722 168.377 93.1225 168.684 93.0421Z" fill="#161616"/>
<path d="M158.525 77.3286C157.606 76.2511 157.977 74.3211 158.428 73.0987C158.976 71.603 160.057 70.4771 161.621 70.0429C162.992 69.6569 164.459 69.7052 165.797 69.1905C167.281 68.6115 168.361 67.0192 170.07 67.1318C170.377 67.1479 170.377 66.6654 170.07 66.6493C168.119 66.5207 166.926 68.3863 165.168 68.8849C163.475 69.3835 161.589 69.2066 160.057 70.1876C158.847 70.9596 158.09 72.2624 157.751 73.6295C157.412 74.9322 157.235 76.5888 158.17 77.6664C158.38 77.9076 158.735 77.5699 158.525 77.3286Z" fill="#383838"/>
<path d="M163.685 75.5112C163.556 74.3372 163.814 73.1792 164.507 72.2142C165.281 71.1366 166.458 70.6541 167.619 70.1072C168.587 69.6569 169.474 69.094 170.167 68.2737C170.844 67.5017 171.183 66.3598 172.038 65.7647C171.925 65.7326 171.812 65.7004 171.699 65.6843C172.505 67.5661 174.118 69.866 172.667 71.8603C172.489 72.1177 172.908 72.3589 173.086 72.1016C174.65 69.9464 172.989 67.4857 172.118 65.4431C172.07 65.3305 171.893 65.2822 171.78 65.3627C170.844 65.9899 170.522 67.1157 169.796 67.936C168.845 69.0457 167.603 69.5443 166.329 70.1555C164.233 71.1687 162.895 73.1309 163.169 75.5112C163.233 75.8168 163.733 75.8168 163.685 75.5112Z" fill="#383838"/>
<path d="M168.248 75.2861C169.28 73.3721 170.973 71.8764 173.037 71.1526C174.005 70.8149 175.021 70.6219 175.94 70.1555C176.827 69.7212 177.585 69.1101 178.246 68.3863C178.117 68.3702 177.988 68.3541 177.859 68.3381C178.455 69.6086 179.02 71.0401 179.133 72.4393C179.246 73.9511 178.407 75.1091 177.488 76.2189C177.294 76.4601 177.633 76.7979 177.827 76.5566C178.746 75.4308 179.649 74.2406 179.616 72.7288C179.584 71.1366 178.923 69.5121 178.262 68.0968C178.197 67.9521 177.988 67.936 177.875 68.0486C177.036 68.9492 176.037 69.6569 174.876 70.0751C173.892 70.4289 172.86 70.6219 171.909 71.0883C170.151 71.9407 168.716 73.34 167.797 75.0448C167.684 75.3182 168.103 75.5595 168.248 75.2861Z" fill="#383838"/>
<path d="M178.407 75.3826C179.568 77.6342 179.358 80.3041 177.875 82.3467C177.698 82.604 178.117 82.8452 178.294 82.5879C179.891 80.4006 180.068 77.5377 178.826 75.1413C178.681 74.8679 178.262 75.1092 178.407 75.3826Z" fill="#383838"/>
<path opacity="0.14" d="M172.409 77.9881C172.457 78.7762 172.489 79.9181 172.409 81.2852C172.247 83.7298 172.118 85.8367 171.038 87.815C169.683 90.2757 167.361 91.5624 165.813 92.2057C166.555 92.254 167.748 92.2218 169.119 91.7715C170.248 91.4016 171.102 90.8708 171.651 90.4527C171.957 91.6589 172.28 92.8652 172.586 94.0714C173.07 93.4924 173.537 92.8973 174.021 92.3183C173.602 91.482 173.183 90.6296 172.763 89.7932C173.102 89.2464 173.424 88.6674 173.747 88.0402C174.327 86.9465 174.795 85.9011 175.182 84.9039C175.392 84.9843 176.004 85.1934 176.553 84.9039C177.165 84.5822 177.311 83.8585 177.44 83.1991C177.569 82.5075 177.923 80.6579 176.827 79.8537C176.375 79.516 175.585 79.2908 174.956 79.6286C174.618 79.8216 174.44 80.1111 174.344 80.288C174.263 79.6286 174.198 78.9692 174.118 78.3097C173.553 78.2132 172.973 78.1007 172.409 77.9881Z" fill="#666666"/>
<path opacity="0.2" d="M168.716 75.2539C169.619 74.2728 170.699 72.8736 171.634 71.024C172.296 69.7052 172.731 68.4828 173.005 67.4535C173.731 68.7562 173.666 69.8017 173.618 70.252C173.344 72.3107 171.473 73.5973 170.425 74.3211C169.764 74.7714 169.151 75.0609 168.716 75.2539Z" fill="#212121"/>
<path opacity="0.16" d="M172.021 77.0552C172.941 76.7336 174.021 76.2672 175.166 75.5756C177.246 74.305 178.649 72.7932 179.52 71.6834C179.632 72.3589 179.745 73.6938 179.02 74.9162C177.859 76.9105 175.005 77.8755 172.021 77.0552Z" fill="#212121"/>
<path opacity="0.22" d="M161.46 76.1867C161.427 75.5112 161.476 74.5462 161.782 73.4365C162.508 70.8953 164.314 68.9975 164.588 69.1583C164.814 69.287 164.265 70.7988 161.46 76.1867Z" fill="#212121"/>
<path d="M162.25 86.5444C164.652 86.657 166.991 86.1745 169.151 85.113C169.361 85.0165 169.184 84.6948 168.974 84.8074C166.878 85.8368 164.588 86.3032 162.266 86.1906C162.008 86.1745 162.024 86.5283 162.25 86.5444Z" fill="#161616"/>
<path d="M162.492 86.6087C162.814 87.1877 163.04 87.815 163.169 88.4583C163.217 88.6835 163.556 88.587 163.524 88.3618C163.395 87.6863 163.153 87.0269 162.814 86.4157C162.701 86.2227 162.379 86.4157 162.492 86.6087Z" fill="#161616"/>
<path d="M163.201 88.4744C164.169 89.4072 165.733 88.9408 166.765 88.3457C168.006 87.6541 168.909 86.4961 169.216 85.113C169.264 84.8878 168.909 84.7913 168.861 85.0165C168.603 86.1584 167.942 87.1234 166.974 87.7989C166.055 88.4261 164.394 89.1338 163.459 88.2171C163.298 88.0562 163.04 88.3136 163.201 88.4744Z" fill="#161616"/>
<path d="M162.975 87.2681C164.072 87.5576 165.33 87.236 166.378 86.9143C167.394 86.6087 168.329 86.1101 169.038 85.306C169.2 85.1291 168.942 84.8717 168.78 85.0486C168.103 85.8045 167.249 86.271 166.281 86.5605C165.297 86.85 164.088 87.1877 163.072 86.9143C162.846 86.866 162.75 87.2199 162.975 87.2681Z" fill="#161616"/>
<path d="M163.137 87.4451C163.266 87.7507 163.395 88.0562 163.524 88.3618C163.604 88.5548 163.927 88.4101 163.862 88.2171C163.749 87.9276 163.669 87.6542 163.604 87.3486C163.524 87.429 163.459 87.4933 163.379 87.5737C163.766 87.6381 164.153 87.6702 164.556 87.6702C164.749 87.6702 164.814 87.3486 164.604 87.3164C164.233 87.2521 163.943 87.2682 163.572 87.3807C163.459 87.4129 163.395 87.5416 163.459 87.6542C163.556 87.7989 163.669 87.9597 163.766 88.1045C163.895 88.2975 164.185 88.1367 164.072 87.9276C164.024 87.7828 163.975 87.6381 163.927 87.5094C163.814 87.5577 163.701 87.6059 163.588 87.6542C163.749 87.8632 163.814 88.0884 163.749 88.3297C163.862 88.2975 163.975 88.2653 164.088 88.2332C163.862 87.8632 163.669 88.2975 163.62 88.4101C163.572 88.5548 163.766 88.7157 163.895 88.6192C165.217 87.622 166.765 87.1234 168.329 86.6409C168.555 86.5766 168.458 86.2227 168.232 86.2871C166.636 86.7696 165.056 87.2842 163.717 88.2975C163.814 88.3618 163.895 88.4262 163.991 88.5066C164.056 88.3618 164.249 88.3297 164.282 88.1045C164.314 87.9115 164.233 87.622 164.024 87.5577C163.443 87.3647 163.653 88.1849 163.798 88.4101C163.895 88.5709 164.12 88.4905 164.136 88.3136C164.169 87.9758 164.104 87.7346 163.927 87.4612C163.814 87.3003 163.54 87.3968 163.588 87.6059C163.653 87.8793 163.653 87.8632 163.766 88.1206C163.862 88.0562 163.975 87.9919 164.072 87.9437C163.975 87.7989 163.862 87.6381 163.766 87.4933C163.733 87.5898 163.701 87.6702 163.653 87.7667C163.927 87.6542 164.201 87.6381 164.491 87.7024C164.507 87.5898 164.523 87.4612 164.54 87.3486C164.169 87.3486 163.846 87.3325 163.459 87.2682C163.314 87.236 163.201 87.3486 163.233 87.4933C163.298 87.7989 163.379 88.0723 163.491 88.3618C163.604 88.3136 163.717 88.2653 163.83 88.2171C163.701 87.9115 163.572 87.6059 163.443 87.3003C163.362 87.043 163.04 87.236 163.137 87.4451Z" fill="#161616"/>
<path d="M164.169 88.0241C164.733 87.6863 165.313 87.429 165.942 87.2038C165.894 87.0912 165.846 86.9786 165.797 86.8661C165.233 87.1234 164.668 87.3807 164.12 87.622C163.943 87.7024 164.072 88.0241 164.265 87.9597C165.781 87.3646 167.281 86.7535 168.651 85.8528C168.555 85.7885 168.474 85.7241 168.377 85.6437C168.168 86.2066 167.232 86.271 166.749 86.4479C166.345 86.5926 165.958 86.7856 165.555 86.9304C164.991 87.1234 164.33 87.0912 163.894 87.5737C163.733 87.7506 163.991 88.008 164.152 87.8311C164.507 87.429 165.168 87.4451 165.652 87.2842C166.136 87.1234 166.604 86.8821 167.103 86.7213C167.781 86.5122 168.458 86.4961 168.732 85.7563C168.78 85.6116 168.587 85.4668 168.458 85.5472C167.119 86.4157 165.636 87.0269 164.152 87.6059C164.201 87.7185 164.249 87.8311 164.298 87.9436C164.862 87.6863 165.426 87.429 165.975 87.1877C166.168 87.1073 166.023 86.7856 165.83 86.85C165.185 87.0751 164.572 87.3646 163.975 87.7024C163.782 87.8311 163.975 88.1527 164.169 88.0241Z" fill="#161616"/>
<path d="M168.522 86.2549C168.522 86.2388 168.506 86.2227 168.506 86.2067C168.506 86.1906 168.506 86.2067 168.506 86.2388C168.49 86.2549 168.458 86.2871 168.442 86.3032H168.458C168.409 86.3032 168.361 86.3192 168.313 86.3192C168.232 86.3032 168.232 86.1584 168.216 86.2549C168.216 86.2871 168.216 86.3032 168.232 86.3353C168.248 86.3997 168.28 86.4318 168.345 86.4801C168.426 86.5444 168.555 86.4962 168.587 86.4157C168.635 86.3192 168.603 86.2227 168.522 86.1745C168.522 86.1745 168.506 86.1745 168.506 86.1584C168.522 86.1745 168.555 86.2067 168.571 86.2227C168.587 86.271 168.587 86.271 168.587 86.2388C168.587 86.2227 168.587 86.2067 168.587 86.2067C168.587 86.1584 168.571 86.1102 168.555 86.078C168.506 86.0137 168.442 85.9654 168.361 85.9654C168.151 85.9654 168.119 86.2067 168.184 86.3514C168.216 86.4479 168.297 86.5122 168.41 86.4801C168.49 86.4479 168.571 86.3353 168.522 86.2549Z" fill="#161616"/>
<path d="M168.555 84.7913C168.861 84.92 169.119 85.1291 169.296 85.4186C169.409 85.6116 169.732 85.4347 169.603 85.2417C169.377 84.8718 169.055 84.5983 168.651 84.4536C168.426 84.3571 168.329 84.7109 168.555 84.7913Z" fill="#161616"/>
<path d="M164.152 88.7317C165.426 87.8311 166.829 87.2038 168.345 86.8661C168.571 86.8178 168.474 86.464 168.248 86.5122C166.684 86.85 165.265 87.4933 163.959 88.4101C163.782 88.5548 163.959 88.8765 164.152 88.7317Z" fill="#161616"/>
<path d="M163.83 88.4422C165.41 88.3618 166.878 87.8793 168.184 86.9947C168.377 86.8661 168.2 86.5444 168.006 86.6891C166.749 87.5416 165.346 88.0241 163.83 88.0884C163.588 88.1045 163.588 88.4583 163.83 88.4422Z" fill="#161616"/>
<path d="M165.297 88.0402C166.184 87.8472 167.007 87.5094 167.781 87.0269C167.974 86.8982 167.797 86.5926 167.603 86.7213C166.862 87.1877 166.071 87.5094 165.217 87.7024C164.975 87.7346 165.072 88.0884 165.297 88.0402Z" fill="#161616"/>
<path d="M164.185 88.6674C165.475 88.6352 166.668 88.2653 167.732 87.5416C167.926 87.4129 167.748 87.0912 167.555 87.236C166.539 87.9276 165.41 88.2814 164.185 88.3136C163.959 88.3136 163.959 88.6835 164.185 88.6674Z" fill="#161616"/>
<path d="M164.185 88.6352C164.169 88.9086 164.427 88.9408 164.636 88.9086C165.12 88.8443 165.588 88.7317 166.055 88.6192C166.281 88.5548 166.184 88.2171 165.959 88.2653C165.717 88.3297 165.475 88.3779 165.217 88.4262C165.104 88.4422 164.556 88.4744 164.54 88.6192C164.572 88.4101 164.201 88.4101 164.185 88.6352Z" fill="#161616"/>
<path d="M167.265 90.517C167.426 90.0667 168.877 90.1631 170.135 90.324C170.135 90.0827 170.183 89.7289 170.328 89.3429C170.441 89.0373 170.619 88.7317 171.264 88.0241C171.957 87.2682 172.312 86.8982 172.763 86.6248C173.102 86.4157 173.666 86.1423 174.456 86.0137C174.779 86.1262 175.118 86.2388 175.44 86.3353C175.537 86.0297 175.73 85.4507 176.101 84.3249C176.343 83.569 176.488 83.183 176.811 83.0543C177.133 82.9417 177.569 83.0543 177.794 83.3277C178.117 83.7298 177.827 84.3088 177.649 85.2899C177.552 85.8528 177.633 85.7563 177.601 87.8632C177.569 90.0184 177.488 90.0023 177.504 90.903C177.52 91.7393 177.633 92.9295 178.02 94.3609C178.375 94.2001 178.939 94.0232 179.616 94.0392C181.197 94.0553 182.309 95.0846 183.132 95.8727C184.744 97.4006 185.438 99.0894 185.905 100.28C186.808 102.579 186.921 104.493 186.937 105.33C186.953 106.632 186.986 107.855 186.324 109.27C186.115 109.72 185.534 110.927 184.212 111.843C183.664 112.229 182.632 112.937 181.293 112.825C180.519 112.76 179.826 112.439 179.084 111.843C176.601 109.833 175.456 106.182 175.101 104.912C174.424 102.596 173.682 99.2341 173.553 95.0364C173.199 95.0203 172.779 94.9399 172.328 94.763C170.667 94.0714 170.022 92.4148 169.893 91.9967C169.554 92.0127 168.345 91.9966 167.587 91.1603C167.426 90.9673 167.2 90.7261 167.265 90.517Z" fill="white"/>
<path d="M169.506 91.6428C168.651 91.5785 167.668 91.2568 167.442 90.324C167.394 90.4205 167.329 90.517 167.281 90.6135C168.522 90.3562 169.764 90.7261 171.006 90.5492C171.312 90.5009 171.183 90.0345 170.877 90.0827C169.635 90.2597 168.393 89.8897 167.152 90.1471C167.023 90.1792 166.958 90.324 166.991 90.4366C167.265 91.5946 168.442 92.0288 169.522 92.1092C169.829 92.1414 169.829 91.6589 169.506 91.6428Z" fill="#161616"/>
<path d="M170.425 89.9219C170.232 88.78 171.989 88.8443 172.65 89.0212C172.957 89.1016 173.086 88.6352 172.779 88.5548C171.699 88.2653 169.7 88.4744 169.958 90.0345C170.006 90.3561 170.474 90.2275 170.425 89.9219Z" fill="#161616"/>
<path d="M171.119 88.8121C171.264 88.2492 171.57 87.7346 172.118 87.4772C172.763 87.1877 173.408 87.4772 174.005 87.7345C174.279 87.8632 174.537 87.4451 174.247 87.3164C173.505 86.9786 172.715 86.657 171.925 87.0269C171.248 87.3325 170.828 87.9758 170.651 88.6835C170.586 88.989 171.054 89.1177 171.119 88.8121Z" fill="#161616"/>
<path d="M172.812 86.8822C172.779 86.85 173.328 86.3997 173.408 86.3514C173.634 86.2388 173.892 86.1745 174.15 86.1745C174.779 86.1745 175.343 86.4801 175.843 86.8017C176.101 86.9626 176.343 86.5605 176.085 86.3836C175.279 85.8689 174.295 85.4668 173.344 85.8528C172.941 86.0136 171.973 86.7374 172.457 87.236C172.683 87.4451 173.021 87.1073 172.812 86.8822Z" fill="#161616"/>
<path d="M177.601 90.9512C177.794 89.5841 177.859 88.2331 177.762 86.85C177.714 86.0619 177.794 85.4507 177.988 84.6787C178.085 84.2766 178.165 83.8585 178.052 83.4564C177.875 82.9096 177.262 82.4592 176.682 82.7487C176.311 82.9417 176.214 83.376 176.085 83.7459C175.843 84.4375 175.617 85.1451 175.392 85.8367C175.295 86.1262 175.763 86.2549 175.859 85.9654C175.988 85.5633 176.117 85.1612 176.262 84.7752C176.343 84.534 176.472 83.7298 176.666 83.5851C177.472 83.4886 177.794 83.7137 177.601 84.2927C177.552 84.4857 177.504 84.6626 177.44 84.8556C177.359 85.1612 177.278 85.4507 177.246 85.7563C177.182 86.5283 177.327 87.3325 177.327 88.1206C177.327 89.0373 177.262 89.938 177.133 90.8386C177.101 91.1281 177.569 91.2568 177.601 90.9512Z" fill="#161616"/>
<path d="M169.248 92.1575C170.087 92.2218 170.296 93.0903 170.683 93.6693C170.877 93.9749 171.119 94.2483 171.409 94.4735C171.973 94.9238 172.634 95.1651 173.36 95.2294C173.666 95.2616 173.666 94.7791 173.36 94.7469C172.134 94.6343 171.36 93.9266 170.796 92.8973C170.441 92.254 170.022 91.7393 169.248 91.6911C168.926 91.6589 168.942 92.1414 169.248 92.1575Z" fill="#161616"/>
<path d="M173.279 95.0203C173.779 96.7412 173.828 98.5104 173.973 100.28C174.102 101.775 174.344 103.271 174.763 104.702C175.585 107.469 177.004 110.026 179.052 112.085C179.278 112.31 179.616 111.956 179.391 111.747C177.278 109.624 175.843 106.954 175.085 104.075C174.279 101.052 174.618 97.8831 173.747 94.8916C173.65 94.6021 173.183 94.7308 173.279 95.0203Z" fill="#161616"/>
<path d="M177.133 90.7582C177.375 93.4441 178.165 96.0657 179.487 98.4139C180.777 100.698 182.761 102.676 183.212 105.346C183.261 105.651 183.728 105.523 183.68 105.217C183.277 102.789 181.616 100.939 180.342 98.9125C178.81 96.4517 177.891 93.6532 177.617 90.7743C177.585 90.4526 177.101 90.4526 177.133 90.7582Z" fill="#161616"/>
<path d="M178.246 94.4896C180.648 93.7176 183.019 95.6476 184.277 97.5132C185.599 99.4754 186.195 101.888 186.469 104.22C186.727 106.504 186.55 108.997 185.018 110.83C183.599 112.535 180.971 113.211 179.181 111.667C178.939 111.457 178.601 111.811 178.842 112.004C180.535 113.468 183.035 113.259 184.696 111.843C186.727 110.123 187.227 107.324 187.018 104.799C186.792 102.049 186.099 99.1055 184.422 96.8538C183.019 94.9882 180.568 93.2351 178.133 94.0071C177.826 94.1197 177.939 94.5861 178.246 94.4896Z" fill="#161616"/>
<path opacity="0.15" d="M177.198 83.6173C176.343 83.9389 176.408 86.1263 176.472 87.7024C176.698 92.3827 176.811 94.7309 177.73 98.3335C179.052 103.464 180.261 104.799 180.923 105.426C181.874 106.327 183.696 107.63 184.47 107.115C185.696 106.295 183.744 101.405 183.261 100.215C181.632 96.1623 181.277 94.8113 180.068 94.3931C179.342 94.1519 178.633 94.2484 178.133 94.3931C177.44 92.9134 177.327 91.7233 177.343 90.903C177.359 90.2114 177.472 90.2114 177.52 89.166C177.617 87.2682 177.278 87.1556 177.456 85.9172C177.633 84.7109 178.101 83.9872 177.762 83.6977C177.649 83.5368 177.375 83.5529 177.198 83.6173Z" fill="#666666"/>
<path opacity="0.15" d="M178.584 95.2133C179.729 96.3231 180.519 97.3846 181.052 98.2209C182.358 100.231 182.906 102.033 183.099 102.724C183.374 103.705 183.503 104.558 183.583 105.185C183.309 104.349 182.793 103.094 181.89 101.695C181.164 100.569 180.697 100.183 180.084 99.1698C179.584 98.3335 178.955 97.0468 178.584 95.2133Z" fill="#666666"/>
</svg>
